<svg width="434" height="217" viewBox="0 0 434 217" fill="none" xmlns="http://www.w3.org/2000/svg">
<g clip-path="url(#clip0_14_2)">
<path d="M434 217H0V0H434V217Z" fill="#4C4A4C"/>
<path d="M157.128 114V111.068C157.128 110.408 156.835 110.041 156.175 109.895L153.17 109.015L157.275 98.4581H179.928L184.033 109.015L181.028 109.895C180.368 110.041 180.001 110.408 180.001 111.068V114H195.103V111.068C195.103 110.408 194.737 110.041 194.15 109.895L191.218 109.015L172.23 61.5095H165.046L145.985 109.015L143.053 109.895C142.466 110.041 142.1 110.408 142.1 111.068V114H157.128ZM177.949 93.3264H159.254L167.099 73.1659C167.612 71.773 168.052 70.1602 168.565 68.1808C169.151 70.1602 169.664 71.8463 170.178 73.1659L177.949 93.3264ZM216.363 114V110.848C216.363 110.115 215.924 109.601 215.19 109.455C214.751 109.308 213.431 109.015 211.085 108.575V59.97H199.209V63.1223C199.209 63.8554 199.649 64.2953 200.382 64.4419C200.822 64.5886 202.141 64.8818 204.487 65.3217V108.648L200.382 109.455C199.649 109.601 199.209 110.115 199.209 110.848V114H216.363ZM237.33 114.587C238.65 114.587 240.043 114.44 241.362 114.22C242.682 114 244.002 113.633 245.321 113.194C246.641 112.754 247.74 112.094 248.913 111.361C250.086 110.628 251.039 109.895 251.846 108.868L250.013 106.449C249.72 106.009 249.353 105.789 248.767 105.789C248.327 105.789 247.887 106.009 247.301 106.376C246.714 106.742 245.981 107.109 245.101 107.549C244.222 107.989 243.195 108.428 242.022 108.795C240.849 109.162 239.383 109.308 237.77 109.308C236.011 109.308 234.545 109.015 233.078 108.428C231.612 107.842 230.439 106.962 229.413 105.789C228.386 104.616 227.507 103.297 226.92 101.537C226.334 99.7777 226.04 97.725 226.04 95.3791H250.673C251.259 95.3791 251.773 95.1592 251.993 94.8659C252.212 94.5727 252.286 93.8396 252.286 92.8132C252.286 90.174 251.846 87.8281 251.113 85.7754C250.38 83.7227 249.207 81.9632 247.887 80.5703C246.568 79.1774 244.955 78.1511 243.049 77.4179C241.143 76.6848 239.163 76.3183 236.964 76.3183C234.325 76.3183 231.979 76.7581 229.779 77.7112C227.58 78.6642 225.747 79.9838 224.281 81.5967C222.815 83.2095 221.642 85.2622 220.835 87.4615C220.029 89.6608 219.589 92.0068 219.589 94.646C219.589 97.8717 220.029 100.657 220.909 103.15C221.788 105.643 222.961 107.695 224.574 109.381C226.187 111.068 228.02 112.387 230.219 113.267C232.419 114.147 234.764 114.587 237.33 114.587ZM246.494 91.4203H226.334C226.774 88.1946 227.947 85.6288 229.706 83.796C231.465 81.9632 233.958 81.0835 237.11 81.0835L237.037 81.1568C238.503 81.1568 239.896 81.3767 241.069 81.8899C242.242 82.4031 243.269 83.1362 244.075 84.0159C244.881 84.8956 245.395 86.0686 245.834 87.3149C246.274 88.5612 246.494 89.9541 246.494 91.4203ZM275.379 114.44C278.091 114.44 280.51 114 282.71 113.12C284.909 112.241 286.815 110.921 288.355 109.308C289.894 107.695 291.067 105.643 291.874 103.297C292.68 100.951 293.12 98.3115 293.12 95.3791C293.12 92.4467 292.68 89.8075 291.874 87.4615C291.067 85.1156 289.894 83.0629 288.355 81.45C286.815 79.8372 284.909 78.5176 282.71 77.6379C280.51 76.7581 278.091 76.3183 275.379 76.3183C272.666 76.3183 270.247 76.7581 268.048 77.6379C265.848 78.5176 263.942 79.8372 262.403 81.45C260.863 83.0629 259.69 85.1156 258.81 87.4615C257.931 89.8075 257.637 92.4467 257.637 95.3791C257.637 98.3115 257.931 100.951 258.81 103.297C259.69 105.643 260.863 107.695 262.403 109.308C263.942 110.921 265.848 112.241 268.048 113.12C270.247 114 272.666 114.44 275.379 114.44ZM275.379 109.455C273.473 109.455 271.86 109.015 270.54 108.428C269.221 107.842 268.048 106.962 267.168 105.789C266.288 104.616 265.555 103.15 265.115 101.391C264.675 99.6311 264.382 97.725 264.382 95.5257C264.382 93.3264 264.675 91.2737 265.115 89.5142C265.555 87.7548 266.288 86.2886 267.168 85.1156C268.048 83.9426 269.221 82.9163 270.54 82.3298C271.86 81.7433 273.473 81.45 275.379 81.45C279.044 81.45 281.83 82.623 283.589 85.1156C285.349 87.6081 286.302 91.0538 286.302 95.4524C286.302 99.851 285.349 103.297 283.589 105.789C281.83 108.282 279.044 109.455 275.379 109.455Z" fill="white"/>
<path d="M75.4415 154.16C72.3695 154.16 69.8735 151.536 69.8735 148.288C69.8735 145.04 72.3695 142.416 75.4415 142.416C78.5135 142.416 80.9935 145.056 80.9935 148.288C80.9935 151.52 78.5135 154.16 75.4415 154.16ZM75.4415 153.136C77.8895 153.136 79.8735 150.96 79.8735 148.288C79.8735 145.616 77.8735 143.44 75.4415 143.44C72.9935 143.44 71.0095 145.6 71.0095 148.288C71.0095 150.976 72.9935 153.136 75.4415 153.136Z" fill="white"/>
<path d="M86.3609 146.832C88.0729 146.832 89.2729 148.272 89.2729 150.384C89.2729 152.656 87.9129 154.16 85.8489 154.16C85.0489 154.16 84.4249 153.952 83.8969 153.552V158.416H82.8089V146.992H83.5449L83.8489 147.92C84.4249 147.264 85.3369 146.832 86.3609 146.832ZM85.8169 153.216C87.2889 153.216 88.1689 152.128 88.1689 150.384C88.1689 148.816 87.3849 147.776 86.2009 147.776C85.0009 147.776 83.8969 148.72 83.8969 149.728V152.416C84.3609 152.928 85.0649 153.216 85.8169 153.216Z" fill="white"/>
<path d="M94.0978 146.832C96.0818 146.832 97.5538 148.592 97.3298 150.784H91.6978C91.8098 152.176 92.8658 153.28 94.1458 153.28C94.8978 153.28 95.6498 152.944 96.2578 152.224L97.1058 152.752C96.3698 153.632 95.2338 154.16 94.1298 154.16C92.1938 154.16 90.5778 152.544 90.5778 150.512C90.5778 148.512 92.1618 146.832 94.0978 146.832ZM91.7298 149.952H96.2098C96.0658 148.624 95.1858 147.712 94.0978 147.712C92.9618 147.712 91.9698 148.688 91.7298 149.952Z" fill="white"/>
<path d="M102.512 146.832C104.032 146.832 105.04 147.968 105.04 149.616V154H103.952V149.616C103.952 148.432 103.36 147.776 102.368 147.776C101.216 147.776 100.288 148.64 100.288 149.616V154H99.1995V146.992H99.9355L100.224 147.872C100.752 147.248 101.568 146.832 102.512 146.832Z" fill="white"/>
<path d="M113.752 154.16C112.632 154.16 111.592 153.744 110.856 153.04L111.576 152.368C112.152 152.928 112.888 153.216 113.752 153.216C114.648 153.216 115.272 152.928 115.272 152.224C115.272 151.472 114.552 151.2 113.544 150.8C112.536 150.416 111.256 149.888 111.256 148.672C111.256 147.584 112.264 146.832 113.656 146.832C114.632 146.832 115.384 147.184 115.944 147.76L115.176 148.4C114.728 147.936 114.328 147.76 113.704 147.76C112.84 147.76 112.312 148.112 112.312 148.672C112.312 149.216 112.808 149.488 113.976 149.952C114.968 150.352 116.328 150.912 116.328 152.24C116.328 153.424 115.272 154.16 113.752 154.16Z" fill="white"/>
<path d="M121.207 154.16C119.271 154.16 117.687 152.512 117.687 150.496C117.687 148.48 119.271 146.832 121.207 146.832C123.111 146.832 124.679 148.496 124.679 150.496C124.679 152.496 123.111 154.16 121.207 154.16ZM121.191 153.216C122.487 153.216 123.575 151.968 123.575 150.496C123.575 149.04 122.503 147.776 121.191 147.776C119.895 147.776 118.791 148.992 118.791 150.496C118.791 152.016 119.911 153.216 121.191 153.216Z" fill="white"/>
<path d="M131.184 146.992H132.272V154H131.536L131.248 153.12C130.704 153.744 129.888 154.16 128.944 154.16C127.424 154.16 126.432 153.024 126.432 151.376V146.992H127.52V151.376C127.52 152.56 128.096 153.216 129.104 153.216C130.256 153.216 131.184 152.352 131.184 151.376V146.992Z" fill="white"/>
<path d="M137.949 146.832C138.285 146.832 138.605 146.896 138.893 146.992L138.573 147.92C138.381 147.824 138.173 147.776 137.901 147.776C136.829 147.776 135.725 148.592 135.725 149.616V154H134.637V146.992H135.373L135.661 147.872C136.189 147.248 137.005 146.832 137.949 146.832Z" fill="white"/>
<path d="M142.661 154.16C140.661 154.16 139.093 152.544 139.093 150.512C139.093 148.464 140.677 146.832 142.661 146.832C143.717 146.832 144.805 147.36 145.541 148.224L144.693 148.848C144.101 148.144 143.397 147.776 142.661 147.776C141.285 147.776 140.197 148.992 140.197 150.512C140.197 152.016 141.285 153.216 142.661 153.216C143.445 153.216 144.165 152.848 144.725 152.176L145.573 152.8C144.853 153.632 143.749 154.16 142.661 154.16Z" fill="white"/>
<path d="M150.317 146.832C152.301 146.832 153.773 148.592 153.549 150.784H147.917C148.029 152.176 149.085 153.28 150.365 153.28C151.117 153.28 151.869 152.944 152.477 152.224L153.325 152.752C152.589 153.632 151.453 154.16 150.349 154.16C148.413 154.16 146.797 152.544 146.797 150.512C146.797 148.512 148.381 146.832 150.317 146.832ZM147.949 149.952H152.429C152.285 148.624 151.405 147.712 150.317 147.712C149.181 147.712 148.189 148.688 147.949 149.952Z" fill="white"/>
<path d="M161.861 154.16C160.741 154.16 159.701 153.744 158.965 153.04L159.685 152.368C160.261 152.928 160.997 153.216 161.861 153.216C162.757 153.216 163.381 152.928 163.381 152.224C163.381 151.472 162.661 151.2 161.653 150.8C160.645 150.416 159.365 149.888 159.365 148.672C159.365 147.584 160.373 146.832 161.765 146.832C162.741 146.832 163.493 147.184 164.053 147.76L163.285 148.4C162.837 147.936 162.437 147.76 161.813 147.76C160.949 147.76 160.421 148.112 160.421 148.672C160.421 149.216 160.917 149.488 162.085 149.952C163.077 150.352 164.437 150.912 164.437 152.24C164.437 153.424 163.381 154.16 161.861 154.16Z" fill="white"/>
<path d="M168.341 154.16C166.885 154.16 166.325 153.2 166.325 151.952V142.576H167.413V151.952C167.413 152.736 167.557 153.216 168.341 153.216C168.485 153.216 168.613 153.2 168.741 153.184L168.885 154.128C168.709 154.144 168.517 154.16 168.341 154.16Z" fill="white"/>
<path d="M172.47 146.832C174.15 146.832 175.238 147.904 175.238 149.536V154H174.502L174.214 153.12C173.686 153.744 172.95 154.144 172.086 154.144C170.726 154.144 169.622 153.184 169.622 151.936C169.622 150.608 170.854 149.632 172.422 149.632C172.998 149.632 173.622 149.76 174.15 149.936V149.536C174.15 148.352 173.542 147.664 172.47 147.664C171.878 147.664 171.366 147.84 170.982 148.192L170.262 147.552C170.758 147.12 171.638 146.832 172.47 146.832ZM172.134 153.312C173.142 153.312 174.15 152.416 174.15 151.168V150.784C173.638 150.576 172.95 150.464 172.47 150.464C171.414 150.464 170.726 151.072 170.726 151.936C170.726 152.736 171.318 153.312 172.134 153.312Z" fill="white"/>
<path d="M181.08 146.832C182.792 146.832 183.992 148.272 183.992 150.384C183.992 152.656 182.632 154.16 180.568 154.16C179.672 154.16 179 153.888 178.44 153.408L178.216 154H177.528V142.576H178.616V147.872C179.192 147.232 180.072 146.832 181.08 146.832ZM180.536 153.216C182.008 153.216 182.888 152.128 182.888 150.384C182.888 148.816 182.104 147.776 180.92 147.776C179.72 147.776 178.616 148.72 178.616 149.728V152.416C179.08 152.928 179.784 153.216 180.536 153.216Z" fill="white"/>
<path d="M189.612 150.176V149.232H193.58V150.176H189.612Z" fill="white"/>
<path d="M204.051 153.008H206.499V154H200.435V153.008H202.947V144.016L200.723 146.112L199.955 145.392L202.947 142.576H204.051V153.008Z" fill="white"/>
<path d="M214.369 147.936C215.521 148.48 216.321 149.584 216.321 150.848C216.321 152.704 214.689 154.176 212.689 154.176C210.689 154.176 209.041 152.688 209.041 150.848C209.041 149.584 209.841 148.496 211.009 147.936C210.049 147.424 209.409 146.464 209.409 145.392C209.409 143.728 210.881 142.416 212.689 142.416C214.481 142.416 215.953 143.728 215.953 145.392C215.953 146.464 215.313 147.408 214.369 147.936ZM212.689 143.44C211.489 143.44 210.529 144.336 210.529 145.44C210.529 146.56 211.489 147.472 212.689 147.472C213.873 147.472 214.833 146.56 214.833 145.44C214.833 144.336 213.889 143.44 212.689 143.44ZM212.689 153.152C214.097 153.152 215.201 152.112 215.201 150.8C215.201 149.504 214.097 148.48 212.689 148.48C211.281 148.48 210.161 149.52 210.161 150.8C210.161 152.096 211.297 153.152 212.689 153.152Z" fill="white"/>
<path d="M225.033 154.16C223.913 154.16 222.873 153.744 222.137 153.04L222.857 152.368C223.433 152.928 224.169 153.216 225.033 153.216C225.929 153.216 226.553 152.928 226.553 152.224C226.553 151.472 225.833 151.2 224.825 150.8C223.817 150.416 222.537 149.888 222.537 148.672C222.537 147.584 223.545 146.832 224.937 146.832C225.913 146.832 226.665 147.184 227.225 147.76L226.457 148.4C226.009 147.936 225.609 147.76 224.985 147.76C224.121 147.76 223.593 148.112 223.593 148.672C223.593 149.216 224.089 149.488 225.257 149.952C226.249 150.352 227.609 150.912 227.609 152.24C227.609 153.424 226.553 154.16 225.033 154.16Z" fill="white"/>
<path d="M232.792 153.088L233.112 154C232.776 154.096 232.36 154.16 231.928 154.16C230.488 154.16 229.912 153.2 229.912 151.952V147.888H228.712V146.992H229.912V144.8H231V146.992H232.808V147.888H231V151.952C231 152.736 231.16 153.216 231.928 153.216C232.264 153.216 232.52 153.184 232.792 153.088Z" fill="white"/>
<path d="M238.866 146.992H239.97L237.426 154L235.81 158.416H234.69L236.29 154L233.602 146.992H234.722L236.85 152.768L238.866 146.992Z" fill="white"/>
<path d="M243.512 154.16C242.056 154.16 241.496 153.2 241.496 151.952V142.576H242.584V151.952C242.584 152.736 242.728 153.216 243.512 153.216C243.656 153.216 243.784 153.2 243.912 153.184L244.056 154.128C243.88 154.144 243.688 154.16 243.512 154.16Z" fill="white"/>
<path d="M248.41 146.832C250.394 146.832 251.866 148.592 251.642 150.784H246.01C246.122 152.176 247.178 153.28 248.458 153.28C249.21 153.28 249.962 152.944 250.57 152.224L251.418 152.752C250.682 153.632 249.546 154.16 248.442 154.16C246.506 154.16 244.89 152.544 244.89 150.512C244.89 148.512 246.474 146.832 248.41 146.832ZM246.042 149.952H250.522C250.378 148.624 249.498 147.712 248.41 147.712C247.274 147.712 246.282 148.688 246.042 149.952Z" fill="white"/>
<path d="M255.752 154.16C254.632 154.16 253.592 153.744 252.856 153.04L253.576 152.368C254.152 152.928 254.888 153.216 255.752 153.216C256.648 153.216 257.272 152.928 257.272 152.224C257.272 151.472 256.552 151.2 255.544 150.8C254.536 150.416 253.256 149.888 253.256 148.672C253.256 147.584 254.264 146.832 255.656 146.832C256.632 146.832 257.384 147.184 257.944 147.76L257.176 148.4C256.728 147.936 256.328 147.76 255.704 147.76C254.84 147.76 254.312 148.112 254.312 148.672C254.312 149.216 254.808 149.488 255.976 149.952C256.968 150.352 258.328 150.912 258.328 152.24C258.328 153.424 257.272 154.16 255.752 154.16Z" fill="white"/>
<path d="M273.202 153.136V154.16C272.338 154.16 271.538 153.792 270.818 153.2C270.098 153.792 269.17 154.16 268.146 154.16C265.874 154.16 264.018 152.32 264.018 150.048C264.018 148.752 264.626 147.616 265.618 146.848C265.298 146.32 265.01 145.696 265.01 145.008C265.01 143.568 266.226 142.416 267.682 142.416C268.85 142.416 269.89 143.168 270.226 144.256L269.138 144.56C268.946 143.888 268.354 143.44 267.682 143.44C266.834 143.44 266.13 144.128 266.13 145.008C266.13 145.616 266.482 146.256 267.122 147.072L270.37 151.216C270.482 151.376 270.626 151.552 270.77 151.696C271.058 151.216 271.234 150.656 271.234 150.032C271.234 149.184 270.898 148.384 270.338 147.856L271.106 147.12C271.922 147.872 272.354 148.912 272.354 150C272.354 150.896 272.05 151.744 271.554 152.432C272.098 152.848 272.69 153.136 273.202 153.136ZM265.138 150.032C265.138 151.776 266.466 153.136 268.178 153.136C268.898 153.136 269.554 152.896 270.082 152.48C269.938 152.32 269.81 152.16 269.682 152L266.258 147.728L266.226 147.696C265.554 148.272 265.138 149.12 265.138 150.032Z" fill="white"/>
<path d="M280.567 154L278.023 146.992H279.127L281.127 152.768L283.127 146.992H284.247L281.687 154H280.567Z" fill="white"/>
<path d="M287.658 146.832C289.338 146.832 290.426 147.904 290.426 149.536V154H289.69L289.402 153.12C288.874 153.744 288.138 154.144 287.274 154.144C285.914 154.144 284.81 153.184 284.81 151.936C284.81 150.608 286.042 149.632 287.61 149.632C288.186 149.632 288.81 149.76 289.338 149.936V149.536C289.338 148.352 288.73 147.664 287.658 147.664C287.066 147.664 286.554 147.84 286.17 148.192L285.45 147.552C285.946 147.12 286.826 146.832 287.658 146.832ZM287.322 153.312C288.33 153.312 289.338 152.416 289.338 151.168V150.784C288.826 150.576 288.138 150.464 287.658 150.464C286.602 150.464 285.914 151.072 285.914 151.936C285.914 152.736 286.506 153.312 287.322 153.312Z" fill="white"/>
<path d="M296.027 146.832C296.363 146.832 296.683 146.896 296.971 146.992L296.651 147.92C296.459 147.824 296.251 147.776 295.979 147.776C294.907 147.776 293.803 148.592 293.803 149.616V154H292.715V146.992H293.451L293.739 147.872C294.267 147.248 295.083 146.832 296.027 146.832Z" fill="white"/>
<path d="M298.868 144.816C298.516 144.816 298.212 144.528 298.212 144.176C298.212 143.824 298.516 143.536 298.868 143.536C299.22 143.536 299.492 143.824 299.492 144.176C299.492 144.528 299.22 144.816 298.868 144.816ZM298.34 154V146.992H299.428V154H298.34Z" fill="white"/>
<path d="M303.924 146.832C305.604 146.832 306.692 147.904 306.692 149.536V154H305.956L305.668 153.12C305.14 153.744 304.404 154.144 303.54 154.144C302.18 154.144 301.076 153.184 301.076 151.936C301.076 150.608 302.308 149.632 303.876 149.632C304.452 149.632 305.076 149.76 305.604 149.936V149.536C305.604 148.352 304.996 147.664 303.924 147.664C303.332 147.664 302.82 147.84 302.436 148.192L301.716 147.552C302.212 147.12 303.092 146.832 303.924 146.832ZM303.588 153.312C304.596 153.312 305.604 152.416 305.604 151.168V150.784C305.092 150.576 304.404 150.464 303.924 150.464C302.868 150.464 302.18 151.072 302.18 151.936C302.18 152.736 302.772 153.312 303.588 153.312Z" fill="white"/>
<path d="M312.533 146.832C314.245 146.832 315.445 148.272 315.445 150.384C315.445 152.656 314.085 154.16 312.021 154.16C311.125 154.16 310.453 153.888 309.893 153.408L309.669 154H308.981V142.576H310.069V147.872C310.645 147.232 311.525 146.832 312.533 146.832ZM311.989 153.216C313.461 153.216 314.341 152.128 314.341 150.384C314.341 148.816 313.557 147.776 312.373 147.776C311.173 147.776 310.069 148.72 310.069 149.728V152.416C310.533 152.928 311.237 153.216 311.989 153.216Z" fill="white"/>
<path d="M319.294 154.16C317.838 154.16 317.278 153.2 317.278 151.952V142.576H318.366V151.952C318.366 152.736 318.51 153.216 319.294 153.216C319.438 153.216 319.566 153.2 319.694 153.184L319.838 154.128C319.662 154.144 319.47 154.16 319.294 154.16Z" fill="white"/>
<path d="M324.192 146.832C326.176 146.832 327.648 148.592 327.424 150.784H321.792C321.904 152.176 322.96 153.28 324.24 153.28C324.992 153.28 325.744 152.944 326.352 152.224L327.2 152.752C326.464 153.632 325.328 154.16 324.224 154.16C322.288 154.16 320.672 152.544 320.672 150.512C320.672 148.512 322.256 146.832 324.192 146.832ZM321.824 149.952H326.304C326.16 148.624 325.28 147.712 324.192 147.712C323.056 147.712 322.064 148.688 321.824 149.952Z" fill="white"/>
<path d="M336.088 143.36C335.08 143.36 334.952 144.096 334.952 144.784V146.992H336.632V147.888H334.952L334.936 154H333.848L333.864 147.888H332.728V146.992H333.864V144.784C333.864 143.248 334.664 142.416 336.04 142.416C336.616 142.416 337.192 142.56 337.576 142.816L337 143.6C336.744 143.456 336.424 143.36 336.088 143.36Z" fill="white"/>
<path d="M340.785 154.16C338.849 154.16 337.265 152.512 337.265 150.496C337.265 148.48 338.849 146.832 340.785 146.832C342.689 146.832 344.257 148.496 344.257 150.496C344.257 152.496 342.689 154.16 340.785 154.16ZM340.769 153.216C342.065 153.216 343.153 151.968 343.153 150.496C343.153 149.04 342.081 147.776 340.769 147.776C339.473 147.776 338.369 148.992 338.369 150.496C338.369 152.016 339.489 153.216 340.769 153.216Z" fill="white"/>
<path d="M349.402 146.832C350.922 146.832 351.93 147.968 351.93 149.616V154H350.842V149.616C350.842 148.432 350.25 147.776 349.258 147.776C348.106 147.776 347.178 148.64 347.178 149.616V154H346.09V146.992H346.826L347.114 147.872C347.642 147.248 348.458 146.832 349.402 146.832Z" fill="white"/>
<path d="M357.496 153.088L357.816 154C357.48 154.096 357.064 154.16 356.632 154.16C355.192 154.16 354.616 153.2 354.616 151.952V147.888H353.416V146.992H354.616V144.8H355.704V146.992H357.512V147.888H355.704V151.952C355.704 152.736 355.864 153.216 356.632 153.216C356.968 153.216 357.224 153.184 357.496 153.088Z" fill="white"/>
<path d="M361.455 154.16C360.335 154.16 359.295 153.744 358.559 153.04L359.279 152.368C359.855 152.928 360.591 153.216 361.455 153.216C362.351 153.216 362.975 152.928 362.975 152.224C362.975 151.472 362.255 151.2 361.247 150.8C360.239 150.416 358.959 149.888 358.959 148.672C358.959 147.584 359.967 146.832 361.359 146.832C362.335 146.832 363.087 147.184 363.647 147.76L362.879 148.4C362.431 147.936 362.031 147.76 361.407 147.76C360.543 147.76 360.015 148.112 360.015 148.672C360.015 149.216 360.511 149.488 361.679 149.952C362.671 150.352 364.031 150.912 364.031 152.24C364.031 153.424 362.975 154.16 361.455 154.16Z" fill="white"/>
</g>
<defs>
<clipPath id="clip0_14_2">
<rect width="434" height="217" fill="white"/>
</clipPath>
</defs>
</svg>
