<?xml version="1.0" encoding="UTF-8"?>
<svg width="434px" height="217px" viewBox="0 0 434 217" version="1.1" xmlns="http://www.w3.org/2000/svg" xmlns:xlink="http://www.w3.org/1999/xlink">
    <!-- Generator: Sketch 63.1 (92452) - https://sketch.com -->
    <title>retail-aleo-hover</title>
    <desc>Created with Sketch.</desc>
    <g id="retail-aleo-hover" stroke="none" stroke-width="1" fill="none" fill-rule="evenodd">
        <rect id="Rectangle" fill="#ED6F44" transform="translate(217.000000, 108.500000) scale(1, -1) translate(-217.000000, -108.500000) " x="0" y="0" width="434" height="217"></rect>
        <path d="M157.128547,114 L157.128547,111.067568 C157.128547,110.40777 156.835304,110.041216 156.175507,109.894595 L153.169764,109.014865 L157.275169,98.4581081 L179.928209,98.4581081 L184.033615,109.014865 L181.027872,109.894595 C180.368074,110.041216 180.00152,110.40777 180.00152,111.067568 L180.00152,114 L195.103547,114 L195.103547,111.067568 C195.103547,110.40777 194.736993,110.041216 194.150507,109.894595 L191.218074,109.014865 L172.230574,61.5094595 L165.046115,61.5094595 L145.985304,109.014865 L143.052872,109.894595 C142.466385,110.041216 142.099831,110.40777 142.099831,111.067568 L142.099831,114 L157.128547,114 Z M177.948818,93.3263514 L159.254561,93.3263514 L167.098818,73.1658784 C167.611993,71.772973 168.051858,70.1601351 168.565034,68.1807432 C169.15152,70.1601351 169.664696,71.8462838 170.177872,73.1658784 L177.948818,93.3263514 Z M216.363682,114 L216.363682,110.847635 C216.363682,110.114527 215.923818,109.601351 215.190709,109.45473 C214.750845,109.308108 213.43125,109.014865 211.085304,108.575 L211.085304,59.9699324 L199.208953,59.9699324 L199.208953,63.1222973 C199.208953,63.8554054 199.648818,64.2952703 200.381926,64.4418919 C200.821791,64.5885135 202.141385,64.8817568 204.487331,65.3216216 L204.487331,108.648311 L200.381926,109.45473 C199.648818,109.601351 199.208953,110.114527 199.208953,110.847635 L199.208953,114 L216.363682,114 Z M237.330574,114.586486 C238.650169,114.586486 240.043074,114.439865 241.362669,114.219932 C242.682264,114 244.001858,113.633446 245.321453,113.193581 C246.641047,112.753716 247.740709,112.093919 248.913682,111.360811 C250.086655,110.627703 251.039696,109.894595 251.846115,108.868243 L250.013345,106.448986 C249.720101,106.009122 249.353547,105.789189 248.767061,105.789189 C248.327196,105.789189 247.887331,106.009122 247.300845,106.375676 C246.714358,106.74223 245.98125,107.108784 245.10152,107.548649 C244.221791,107.988514 243.195439,108.428378 242.022466,108.794932 C240.849493,109.161486 239.383277,109.308108 237.770439,109.308108 C236.01098,109.308108 234.544764,109.014865 233.078547,108.428378 C231.612331,107.841892 230.439358,106.962162 229.413007,105.789189 C228.386655,104.616216 227.506926,103.296622 226.920439,101.537162 C226.333953,99.7777027 226.040709,97.725 226.040709,95.3790541 L250.673142,95.3790541 C251.259628,95.3790541 251.772804,95.1591216 251.992736,94.8658784 C252.212669,94.5726351 252.28598,93.839527 252.28598,92.8131757 C252.28598,90.1739865 251.846115,87.8280405 251.113007,85.7753378 C250.379899,83.7226351 249.206926,81.9631757 247.887331,80.5702703 C246.567736,79.1773649 244.954899,78.1510135 243.048818,77.4179054 C241.142736,76.6847973 239.163345,76.3182432 236.96402,76.3182432 C234.324831,76.3182432 231.978885,76.7581081 229.779561,77.7111486 C227.580236,78.6641892 225.747466,79.9837838 224.28125,81.5966216 C222.815034,83.2094595 221.642061,85.2621622 220.835642,87.4614865 C220.029223,89.6608108 219.589358,92.0067568 219.589358,94.6459459 C219.589358,97.8716216 220.029223,100.657432 220.908953,103.15 C221.788682,105.642568 222.961655,107.69527 224.574493,109.381419 C226.187331,111.067568 228.020101,112.387162 230.219426,113.266892 C232.41875,114.146622 234.764696,114.586486 237.330574,114.586486 Z M246.494426,91.4202703 L226.333953,91.4202703 C226.773818,88.1945946 227.946791,85.6287162 229.70625,83.7959459 C231.465709,81.9631757 233.958277,81.0834459 237.110642,81.0834459 L237.037331,81.1567568 C238.503547,81.1567568 239.896453,81.3766892 241.069426,81.8898649 C242.242399,82.4030405 243.26875,83.1361486 244.075169,84.0158784 C244.881588,84.8956081 245.394764,86.0685811 245.834628,87.3148649 C246.274493,88.5611486 246.494426,89.9540541 246.494426,91.4202703 Z M275.378885,114.439865 C278.091385,114.439865 280.510642,114 282.709966,113.12027 C284.909291,112.240541 286.815372,110.920946 288.354899,109.308108 C289.894426,107.69527 291.067399,105.642568 291.873818,103.296622 C292.680236,100.950676 293.120101,98.3114865 293.120101,95.3790541 C293.120101,92.4466216 292.680236,89.8074324 291.873818,87.4614865 C291.067399,85.1155405 289.894426,83.0628378 288.354899,81.45 C286.815372,79.8371622 284.909291,78.5175676 282.709966,77.6378378 C280.510642,76.7581081 278.091385,76.3182432 275.378885,76.3182432 C272.666385,76.3182432 270.247128,76.7581081 268.047804,77.6378378 C265.84848,78.5175676 263.942399,79.8371622 262.402872,81.45 C260.863345,83.0628378 259.690372,85.1155405 258.810642,87.4614865 C257.930912,89.8074324 257.637669,92.4466216 257.637669,95.3790541 C257.637669,98.3114865 257.930912,100.950676 258.810642,103.296622 C259.690372,105.642568 260.863345,107.69527 262.402872,109.308108 C263.942399,110.920946 265.84848,112.240541 268.047804,113.12027 C270.247128,114 272.666385,114.439865 275.378885,114.439865 Z M275.378885,109.45473 C273.472804,109.45473 271.859966,109.014865 270.540372,108.428378 C269.220777,107.841892 268.047804,106.962162 267.168074,105.789189 C266.288345,104.616216 265.555236,103.15 265.115372,101.390541 C264.675507,99.6310811 264.382264,97.725 264.382264,95.5256757 C264.382264,93.3263514 264.675507,91.2736486 265.115372,89.5141892 C265.555236,87.7547297 266.288345,86.2885135 267.168074,85.1155405 C268.047804,83.9425676 269.220777,82.9162162 270.540372,82.3297297 C271.859966,81.7432432 273.472804,81.45 275.378885,81.45 C279.044426,81.45 281.830236,82.622973 283.589696,85.1155405 C285.349155,87.6081081 286.302196,91.0537162 286.302196,95.4523649 C286.302196,99.8510135 285.349155,103.296622 283.589696,105.789189 C281.830236,108.281757 279.044426,109.45473 275.378885,109.45473 Z" id="Aleo" fill="#FFFFFF" fill-rule="nonzero"></path>
        <path d="M133.484,154.16 C136.556,154.16 139.036,151.52 139.036,148.288 C139.036,145.056 136.556,142.416 133.484,142.416 C130.412,142.416 127.916,145.04 127.916,148.288 C127.916,151.536 130.412,154.16 133.484,154.16 Z M133.484,153.136 C131.036,153.136 129.052,150.976 129.052,148.288 C129.052,145.6 131.036,143.44 133.484,143.44 C135.916,143.44 137.916,145.616 137.916,148.288 C137.916,150.96 135.932,153.136 133.484,153.136 Z M141.932,158.416 L141.932,153.552 C142.46,153.952 143.084,154.16 143.884,154.16 C145.948,154.16 147.308,152.656 147.308,150.384 C147.308,148.272 146.108,146.832 144.396,146.832 C143.372,146.832 142.46,147.264 141.884,147.92 L141.58,146.992 L140.844,146.992 L140.844,158.416 L141.932,158.416 Z M143.852,153.216 C143.1,153.216 142.396,152.928 141.932,152.416 L141.932,149.728 C141.932,148.72 143.036,147.776 144.236,147.776 C145.42,147.776 146.204,148.816 146.204,150.384 C146.204,152.128 145.324,153.216 143.852,153.216 Z M152.172,154.16 C153.276,154.16 154.412,153.632 155.148,152.752 L154.3,152.224 C153.692,152.944 152.94,153.28 152.188,153.28 C150.908,153.28 149.852,152.176 149.74,150.784 L155.372,150.784 C155.596,148.592 154.124,146.832 152.14,146.832 C150.204,146.832 148.62,148.512 148.62,150.512 C148.62,152.544 150.236,154.16 152.172,154.16 Z M154.252,149.952 L149.772,149.952 C150.012,148.688 151.004,147.712 152.14,147.712 C153.228,147.712 154.108,148.624 154.252,149.952 Z M158.332,154 L158.332,149.616 C158.332,148.64 159.26,147.776 160.412,147.776 C161.404,147.776 161.996,148.432 161.996,149.616 L161.996,154 L163.084,154 L163.084,149.616 C163.084,147.968 162.076,146.832 160.556,146.832 C159.612,146.832 158.796,147.248 158.268,147.872 L157.98,146.992 L157.244,146.992 L157.244,154 L158.332,154 Z M171.804,154.16 C173.324,154.16 174.38,153.424 174.38,152.24 C174.38,150.912 173.02,150.352 172.028,149.952 C170.86,149.488 170.364,149.216 170.364,148.672 C170.364,148.112 170.892,147.76 171.756,147.76 C172.38,147.76 172.78,147.936 173.228,148.4 L173.996,147.76 C173.436,147.184 172.684,146.832 171.708,146.832 C170.316,146.832 169.308,147.584 169.308,148.672 C169.308,149.888 170.588,150.416 171.596,150.8 C172.604,151.2 173.324,151.472 173.324,152.224 C173.324,152.928 172.7,153.216 171.804,153.216 C170.94,153.216 170.204,152.928 169.628,152.368 L168.908,153.04 C169.644,153.744 170.684,154.16 171.804,154.16 Z M179.26,154.16 C181.164,154.16 182.732,152.496 182.732,150.496 C182.732,148.496 181.164,146.832 179.26,146.832 C177.324,146.832 175.74,148.48 175.74,150.496 C175.74,152.512 177.324,154.16 179.26,154.16 Z M179.244,153.216 C177.964,153.216 176.844,152.016 176.844,150.496 C176.844,148.992 177.948,147.776 179.244,147.776 C180.556,147.776 181.628,149.04 181.628,150.496 C181.628,151.968 180.54,153.216 179.244,153.216 Z M187.004,154.16 C187.948,154.16 188.764,153.744 189.308,153.12 L189.596,154 L190.332,154 L190.332,146.992 L189.244,146.992 L189.244,151.376 C189.244,152.352 188.316,153.216 187.164,153.216 C186.156,153.216 185.58,152.56 185.58,151.376 L185.58,146.992 L184.492,146.992 L184.492,151.376 C184.492,153.024 185.484,154.16 187.004,154.16 Z M193.788,154 L193.788,149.616 C193.788,148.592 194.892,147.776 195.964,147.776 C196.236,147.776 196.444,147.824 196.636,147.92 L196.956,146.992 C196.668,146.896 196.348,146.832 196.012,146.832 C195.068,146.832 194.252,147.248 193.724,147.872 L193.436,146.992 L192.7,146.992 L192.7,154 L193.788,154 Z M200.732,154.16 C201.82,154.16 202.924,153.632 203.644,152.8 L202.796,152.176 C202.236,152.848 201.516,153.216 200.732,153.216 C199.356,153.216 198.268,152.016 198.268,150.512 C198.268,148.992 199.356,147.776 200.732,147.776 C201.468,147.776 202.172,148.144 202.764,148.848 L203.612,148.224 C202.876,147.36 201.788,146.832 200.732,146.832 C198.748,146.832 197.164,148.464 197.164,150.512 C197.164,152.544 198.732,154.16 200.732,154.16 Z M208.412,154.16 C209.516,154.16 210.652,153.632 211.388,152.752 L210.54,152.224 C209.932,152.944 209.18,153.28 208.428,153.28 C207.148,153.28 206.092,152.176 205.98,150.784 L211.612,150.784 C211.836,148.592 210.364,146.832 208.38,146.832 C206.444,146.832 204.86,148.512 204.86,150.512 C204.86,152.544 206.476,154.16 208.412,154.16 Z M210.492,149.952 L206.012,149.952 C206.252,148.688 207.244,147.712 208.38,147.712 C209.468,147.712 210.348,148.624 210.492,149.952 Z M219.932,154.16 C221.452,154.16 222.508,153.424 222.508,152.24 C222.508,150.912 221.148,150.352 220.156,149.952 C218.988,149.488 218.492,149.216 218.492,148.672 C218.492,148.112 219.02,147.76 219.884,147.76 C220.508,147.76 220.908,147.936 221.356,148.4 L222.124,147.76 C221.564,147.184 220.812,146.832 219.836,146.832 C218.444,146.832 217.436,147.584 217.436,148.672 C217.436,149.888 218.716,150.416 219.724,150.8 C220.732,151.2 221.452,151.472 221.452,152.224 C221.452,152.928 220.828,153.216 219.932,153.216 C219.068,153.216 218.332,152.928 217.756,152.368 L217.036,153.04 C217.772,153.744 218.812,154.16 219.932,154.16 Z M226.412,154.16 C226.588,154.16 226.78,154.144 226.956,154.128 L226.812,153.184 C226.684,153.2 226.556,153.216 226.412,153.216 C225.628,153.216 225.484,152.736 225.484,151.952 L225.484,142.576 L224.396,142.576 L224.396,151.952 C224.396,153.2 224.956,154.16 226.412,154.16 Z M230.156,154.144 C231.02,154.144 231.756,153.744 232.284,153.12 L232.572,154 L233.308,154 L233.308,149.536 C233.308,147.904 232.22,146.832 230.54,146.832 C229.708,146.832 228.828,147.12 228.332,147.552 L229.052,148.192 C229.436,147.84 229.948,147.664 230.54,147.664 C231.612,147.664 232.22,148.352 232.22,149.536 L232.22,149.936 C231.692,149.76 231.068,149.632 230.492,149.632 C228.924,149.632 227.692,150.608 227.692,151.936 C227.692,153.184 228.796,154.144 230.156,154.144 Z M230.204,153.312 C229.388,153.312 228.796,152.736 228.796,151.936 C228.796,151.072 229.484,150.464 230.54,150.464 C231.02,150.464 231.708,150.576 232.22,150.784 L232.22,151.168 C232.22,152.416 231.212,153.312 230.204,153.312 Z M238.636,154.16 C240.7,154.16 242.06,152.656 242.06,150.384 C242.06,148.272 240.86,146.832 239.148,146.832 C238.14,146.832 237.26,147.232 236.684,147.872 L236.684,142.576 L235.596,142.576 L235.596,154 L236.284,154 L236.508,153.408 C237.068,153.888 237.74,154.16 238.636,154.16 Z M238.604,153.216 C237.852,153.216 237.148,152.928 236.684,152.416 L236.684,149.728 C236.684,148.72 237.788,147.776 238.988,147.776 C240.172,147.776 240.956,148.816 240.956,150.384 C240.956,152.128 240.076,153.216 238.604,153.216 Z M251.66,150.176 L251.66,149.232 L247.692,149.232 L247.692,150.176 L251.66,150.176 Z M261.388,154.16 C263.468,154.16 265.1,152.448 265.1,150.432 C265.1,148.384 263.436,146.704 261.388,146.704 C260.78,146.704 260.22,146.96 259.756,147.456 C260.492,146.032 261.676,144.624 263.58,143.248 L262.908,142.416 C259.212,145.088 257.676,147.808 257.676,150.288 C257.676,152.624 259.404,154.16 261.388,154.16 Z M261.388,153.136 C259.964,153.136 258.796,151.936 258.796,150.432 C258.796,148.928 259.948,147.728 261.388,147.728 C262.812,147.728 263.98,148.928 263.98,150.432 C263.98,151.92 262.812,153.136 261.388,153.136 Z M273.692,154.16 C275.212,154.16 276.268,153.424 276.268,152.24 C276.268,150.912 274.908,150.352 273.916,149.952 C272.748,149.488 272.252,149.216 272.252,148.672 C272.252,148.112 272.78,147.76 273.644,147.76 C274.268,147.76 274.668,147.936 275.116,148.4 L275.884,147.76 C275.324,147.184 274.572,146.832 273.596,146.832 C272.204,146.832 271.196,147.584 271.196,148.672 C271.196,149.888 272.476,150.416 273.484,150.8 C274.492,151.2 275.212,151.472 275.212,152.224 C275.212,152.928 274.588,153.216 273.692,153.216 C272.828,153.216 272.092,152.928 271.516,152.368 L270.796,153.04 C271.532,153.744 272.572,154.16 273.692,154.16 Z M280.588,154.16 C281.02,154.16 281.436,154.096 281.772,154 L281.452,153.088 C281.18,153.184 280.924,153.216 280.588,153.216 C279.82,153.216 279.66,152.736 279.66,151.952 L279.66,147.888 L281.468,147.888 L281.468,146.992 L279.66,146.992 L279.66,144.8 L278.572,144.8 L278.572,146.992 L277.372,146.992 L277.372,147.888 L278.572,147.888 L278.572,151.952 C278.572,153.2 279.148,154.16 280.588,154.16 Z M284.476,158.416 L286.092,154 L288.636,146.992 L287.532,146.992 L285.516,152.768 L283.388,146.992 L282.268,146.992 L284.956,154 L283.356,158.416 L284.476,158.416 Z M292.172,154.16 C292.348,154.16 292.54,154.144 292.716,154.128 L292.572,153.184 C292.444,153.2 292.316,153.216 292.172,153.216 C291.388,153.216 291.244,152.736 291.244,151.952 L291.244,142.576 L290.156,142.576 L290.156,151.952 C290.156,153.2 290.716,154.16 292.172,154.16 Z M297.1,154.16 C298.204,154.16 299.34,153.632 300.076,152.752 L299.228,152.224 C298.62,152.944 297.868,153.28 297.116,153.28 C295.836,153.28 294.78,152.176 294.668,150.784 L300.3,150.784 C300.524,148.592 299.052,146.832 297.068,146.832 C295.132,146.832 293.548,148.512 293.548,150.512 C293.548,152.544 295.164,154.16 297.1,154.16 Z M299.18,149.952 L294.7,149.952 C294.94,148.688 295.932,147.712 297.068,147.712 C298.156,147.712 299.036,148.624 299.18,149.952 Z M304.412,154.16 C305.932,154.16 306.988,153.424 306.988,152.24 C306.988,150.912 305.628,150.352 304.636,149.952 C303.468,149.488 302.972,149.216 302.972,148.672 C302.972,148.112 303.5,147.76 304.364,147.76 C304.988,147.76 305.388,147.936 305.836,148.4 L306.604,147.76 C306.044,147.184 305.292,146.832 304.316,146.832 C302.924,146.832 301.916,147.584 301.916,148.672 C301.916,149.888 303.196,150.416 304.204,150.8 C305.212,151.2 305.932,151.472 305.932,152.224 C305.932,152.928 305.308,153.216 304.412,153.216 C303.548,153.216 302.812,152.928 302.236,152.368 L301.516,153.04 C302.252,153.744 303.292,154.16 304.412,154.16 Z" id="Opensourceslab-6styles" fill="#FFFFFF" fill-rule="nonzero"></path>
    </g>
</svg>