<?xml version="1.0" encoding="UTF-8"?>
<svg width="434px" height="217px" viewBox="0 0 434 217" version="1.1" xmlns="http://www.w3.org/2000/svg" xmlns:xlink="http://www.w3.org/1999/xlink">
    <!-- Generator: Sketch 63.1 (92452) - https://sketch.com -->
    <title>retail-lagu-sans-hover</title>
    <desc>Created with Sketch.</desc>
    <g id="retail-lagu-sans-hover" stroke="none" stroke-width="1" fill="none" fill-rule="evenodd">
        <rect id="Rectangle" fill="#313453" transform="translate(217.000000, 108.500000) scale(1, -1) translate(-217.000000, -108.500000) " x="0" y="0" width="434" height="217"></rect>
        <path d="M90.1721362,114 L90.1721362,110.22 L63.5721362,110.22 L63.5721362,64.02 L57.4121362,64.02 L57.4121362,114 L90.1721362,114 Z M106.411085,114.77 C109.071085,114.77 111.311085,114.385 113.131085,113.615 C114.951085,112.845 116.304419,112.11 117.191085,111.41 C117.237752,111.41 117.272752,111.398333 117.296085,111.375 L117.296085,111.375 L117.331085,111.34 L117.331085,114 L123.351085,114 L123.351085,88.87 C123.351085,84.53 122.301085,81.275 120.201085,79.105 C118.101085,76.935 114.997752,75.85 110.891085,75.85 C107.484419,75.85 104.439419,76.5966667 101.756085,78.09 C99.0727519,79.5833333 96.8910852,81.8 95.2110852,84.74 L95.2110852,84.74 L98.0110852,86.63 C99.1310852,84.67 100.659419,83.0133333 102.596085,81.66 C104.532752,80.3066667 106.714419,79.63 109.141085,79.63 C111.661085,79.63 113.656085,80.4116667 115.126085,81.975 C116.596085,83.5383333 117.331085,85.72 117.331085,88.52 L117.331085,88.52 L117.331085,94.19 C115.931085,93.49 114.297752,92.9066667 112.431085,92.44 C110.564419,91.9733333 108.674419,91.74 106.761085,91.74 C104.101085,91.74 101.756085,92.2183333 99.7260852,93.175 C97.6960852,94.1316667 96.1210852,95.4966667 95.0010852,97.27 C93.8810852,99.0433333 93.3210852,101.096667 93.3210852,103.43 C93.3210852,105.67 93.8577519,107.653333 94.9310852,109.38 C96.0044185,111.106667 97.5210852,112.436667 99.4810852,113.37 C101.441085,114.303333 103.751085,114.77 106.411085,114.77 Z M108.231085,110.99 C106.504419,110.99 104.964419,110.686667 103.611085,110.08 C102.257752,109.473333 101.207752,108.586667 100.461085,107.42 C99.7144185,106.253333 99.3410852,104.9 99.3410852,103.36 C99.3410852,101.82 99.7144185,100.455 100.461085,99.265 C101.207752,98.075 102.304419,97.1533333 103.751085,96.5 C105.197752,95.8466667 106.901085,95.52 108.861085,95.52 C110.401085,95.52 111.906085,95.6833333 113.376085,96.01 C114.846085,96.3366667 116.047752,96.6866667 116.981085,97.06 C117.074419,97.1066667 117.144419,97.1416667 117.191085,97.165 C117.237752,97.1883333 117.284419,97.2 117.331085,97.2 L117.331085,97.2 L117.331085,107.98 C116.211085,108.82 114.846085,109.531667 113.236085,110.115 C111.626085,110.698333 109.957752,110.99 108.231085,110.99 Z M150.020923,131.57 C155.014256,131.57 158.910923,130.263333 161.710923,127.65 C164.510923,125.036667 165.910923,121.42 165.910923,116.8 L165.910923,116.8 L165.910923,76.55 L159.890923,76.55 L159.89,81.595 L159.70239,81.3905778 C158.20159,79.7902222 156.67839,78.5408 155.13279,77.6423111 L154.745923,77.425 C152.809256,76.375 150.604256,75.85 148.130923,75.85 C144.95759,75.85 142.064256,76.6783333 139.450923,78.335 C136.83759,79.9916667 134.77259,82.29 133.255923,85.23 C131.739256,88.17 130.980923,91.53 130.980923,95.31 C130.980923,99.09 131.739256,102.45 133.255923,105.39 C134.77259,108.33 136.83759,110.616667 139.450923,112.25 C142.064256,113.883333 144.95759,114.7 148.130923,114.7 C150.604256,114.7 152.774256,114.198333 154.640923,113.195 C156.50759,112.191667 158.32759,110.686667 160.100923,108.68 L159.89,108.914 L159.890923,117.29 C159.890923,120.431026 158.920139,122.924862 156.978571,124.771509 L156.740923,124.99 C154.640923,126.856667 151.910923,127.79 148.550923,127.79 C145.93759,127.79 143.52259,127.218333 141.305923,126.075 C139.089256,124.931667 137.11759,123.403333 135.390923,121.49 L135.390923,121.49 L132.940923,123.52 C134.94759,126.18 137.420923,128.186667 140.360923,129.54 C143.300923,130.893333 146.520923,131.57 150.020923,131.57 Z M149.390923,110.92 C147.104256,110.92 145.02759,110.208333 143.160923,108.785 C141.294256,107.361667 139.824256,105.448333 138.750923,103.045 C137.67759,100.641667 137.140923,98.04 137.140923,95.24 C137.140923,92.44 137.67759,89.85 138.750923,87.47 C139.824256,85.09 141.294256,83.1883333 143.160923,81.765 C145.02759,80.3416667 147.080923,79.63 149.320923,79.63 C151.46759,79.63 153.485923,80.2833333 155.375923,81.59 C156.932393,82.6660784 158.433478,84.1694233 159.879175,86.1000346 L159.89,86.116 L159.89,104.574 L159.571723,104.9756 C158.312345,106.529289 157.002775,107.79437 155.643012,108.770844 L155.270923,109.03 C153.404256,110.29 151.444256,110.92 149.390923,110.92 Z M188.239974,114.77 C191.926641,114.77 195.123308,113.93 197.829974,112.25 C199.129174,111.4436 200.202582,110.497424 201.050198,109.411472 L201.119,109.321 L201.119974,114 L207.139974,114 L207.139974,76.55 L201.119974,76.55 L201.119,104.957 L200.861849,105.32 C199.81112,106.76375 198.639076,107.942813 197.345717,108.857188 L196.989974,109.1 C195.076641,110.36 192.929974,110.99 190.549974,110.99 C187.889974,110.99 185.789974,110.208333 184.249974,108.645 C182.709974,107.081667 181.939974,105.04 181.939974,102.52 L181.939974,102.52 L181.939974,76.55 L175.919974,76.55 L175.919974,102.66 C175.919974,106.533333 176.981641,109.52 179.104974,111.62 C181.228308,113.72 184.273308,114.77 188.239974,114.77 Z M251.379333,114.7 C254.692667,114.7 257.714333,114.163333 260.444333,113.09 C263.174333,112.016667 265.344333,110.36 266.954333,108.12 C268.564333,105.88 269.369333,103.08 269.369333,99.72 C269.369333,96.36 268.552667,93.6883333 266.919333,91.705 C265.286,89.7216667 263.267667,88.2633333 260.864333,87.33 C258.461,86.3966667 255.299333,85.4866667 251.379333,84.6 C251.146,84.5533333 250.924333,84.5066667 250.714333,84.46 C250.504333,84.4133333 250.306,84.3666667 250.119333,84.32 C248.299333,83.9466667 246.701,83.4566667 245.324333,82.85 C243.947667,82.2433333 242.769333,81.31 241.789333,80.05 C240.809333,78.79 240.319333,77.1566667 240.319333,75.15 C240.319333,72.77 241.112667,70.8566667 242.699333,69.41 C244.286,67.9633333 246.876,67.24 250.469333,67.24 C253.502667,67.24 256.057667,67.8466667 258.134333,69.06 C260.211,70.2733333 262.252667,72.3733333 264.259333,75.36 L264.259333,75.36 L267.129333,73.68 C265.356,70.1333333 263.057667,67.52 260.234333,65.84 C257.411,64.16 253.899333,63.32 249.699333,63.32 C244.706,63.32 240.844333,64.4166667 238.114333,66.61 C235.384333,68.8033333 234.019333,71.9533333 234.019333,76.06 C234.019333,79.5133333 234.894333,82.2316667 236.644333,84.215 C238.394333,86.1983333 240.342667,87.5866667 242.489333,88.38 C244.636,89.1733333 246.946,89.8033333 249.419333,90.27 C250.212667,90.41 250.971,90.5616667 251.694333,90.725 C252.417667,90.8883333 253.129333,91.0633333 253.829333,91.25 C255.882667,91.7633333 257.574333,92.405 258.904333,93.175 C260.234333,93.945 261.261,94.96 261.984333,96.22 C262.707667,97.48 263.069333,99.0433333 263.069333,100.91 C263.069333,103.85 262.112667,106.23 260.199333,108.05 C258.286,109.87 255.136,110.78 250.749333,110.78 C247.109333,110.78 244.099333,110.01 241.719333,108.47 C239.339333,106.93 237.239333,104.316667 235.419333,100.63 L235.419333,100.63 L232.549333,102.31 C233.902667,106.743333 236.294333,109.916667 239.724333,111.83 C243.154333,113.743333 247.039333,114.7 251.379333,114.7 Z M287.009077,114.77 C289.669077,114.77 291.909077,114.385 293.729077,113.615 C295.549077,112.845 296.90241,112.11 297.789077,111.41 C297.835744,111.41 297.870744,111.398333 297.894077,111.375 L297.894077,111.375 L297.929077,111.34 L297.929077,114 L303.949077,114 L303.949077,88.87 C303.949077,84.53 302.899077,81.275 300.799077,79.105 C298.699077,76.935 295.595744,75.85 291.489077,75.85 C288.08241,75.85 285.03741,76.5966667 282.354077,78.09 C279.670744,79.5833333 277.489077,81.8 275.809077,84.74 L275.809077,84.74 L278.609077,86.63 C279.729077,84.67 281.25741,83.0133333 283.194077,81.66 C285.130744,80.3066667 287.31241,79.63 289.739077,79.63 C292.259077,79.63 294.254077,80.4116667 295.724077,81.975 C297.194077,83.5383333 297.929077,85.72 297.929077,88.52 L297.929077,88.52 L297.929077,94.19 C296.529077,93.49 294.895744,92.9066667 293.029077,92.44 C291.16241,91.9733333 289.27241,91.74 287.359077,91.74 C284.699077,91.74 282.354077,92.2183333 280.324077,93.175 C278.294077,94.1316667 276.719077,95.4966667 275.599077,97.27 C274.479077,99.0433333 273.919077,101.096667 273.919077,103.43 C273.919077,105.67 274.455744,107.653333 275.529077,109.38 C276.60241,111.106667 278.119077,112.436667 280.079077,113.37 C282.039077,114.303333 284.349077,114.77 287.009077,114.77 Z M288.829077,110.99 C287.10241,110.99 285.56241,110.686667 284.209077,110.08 C282.855744,109.473333 281.805744,108.586667 281.059077,107.42 C280.31241,106.253333 279.939077,104.9 279.939077,103.36 C279.939077,101.82 280.31241,100.455 281.059077,99.265 C281.805744,98.075 282.90241,97.1533333 284.349077,96.5 C285.795744,95.8466667 287.499077,95.52 289.459077,95.52 C290.999077,95.52 292.504077,95.6833333 293.974077,96.01 C295.444077,96.3366667 296.645744,96.6866667 297.579077,97.06 C297.67241,97.1066667 297.74241,97.1416667 297.789077,97.165 C297.835744,97.1883333 297.88241,97.2 297.929077,97.2 L297.929077,97.2 L297.929077,107.98 C296.809077,108.82 295.444077,109.531667 293.834077,110.115 C292.224077,110.698333 290.555744,110.99 288.829077,110.99 Z M319.978915,114 L319.978,85.596 L320.23704,85.23 C321.287769,83.78625 322.459813,82.6071875 323.753173,81.6928125 L324.108915,81.45 C326.022248,80.19 328.168915,79.56 330.548915,79.56 C333.208915,79.56 335.308915,80.3416667 336.848915,81.905 C338.388915,83.4683333 339.158915,85.51 339.158915,88.03 L339.158915,88.03 L339.158915,114 L345.178915,114 L345.178915,87.89 C345.178915,84.0166667 344.117248,81.03 341.993915,78.93 C339.870581,76.83 336.825581,75.78 332.858915,75.78 C329.172248,75.78 325.975581,76.62 323.268915,78.3 C321.969715,79.1064 320.896307,80.052576 320.048691,81.138528 L319.978,81.232 L319.978915,76.55 L313.958915,76.55 L313.958915,114 L319.978915,114 Z M366.948163,114.7 C371.148163,114.7 374.65983,113.708333 377.483163,111.725 C380.306496,109.741667 381.718163,106.836667 381.718163,103.01 C381.718163,99.5566667 380.53983,97.0133333 378.183163,95.38 C375.826496,93.7466667 372.501496,92.51 368.208163,91.67 C368.161496,91.67 368.103163,91.6583333 368.033163,91.635 C367.963163,91.6116667 367.90483,91.6 367.858163,91.6 C366.22483,91.2733333 364.813163,90.9116667 363.623163,90.515 C362.433163,90.1183333 361.371496,89.4766667 360.438163,88.59 C359.50483,87.7033333 359.038163,86.49 359.038163,84.95 C359.038163,83.3166667 359.64483,82.0216667 360.858163,81.065 C362.071496,80.1083333 363.938163,79.63 366.458163,79.63 C368.931496,79.63 370.961496,80.1316667 372.548163,81.135 C374.13483,82.1383333 375.581496,83.7366667 376.888163,85.93 L376.888163,85.93 L379.758163,84.25 C378.68483,81.9633333 376.993163,79.9916667 374.683163,78.335 C372.373163,76.6783333 369.30483,75.85 365.478163,75.85 C361.698163,75.85 358.653163,76.725 356.343163,78.475 C354.033163,80.225 352.878163,82.71 352.878163,85.93 C352.878163,89.3366667 354.00983,91.7866667 356.273163,93.28 C358.536496,94.7733333 361.301496,95.8933333 364.568163,96.64 C365.128163,96.78 365.688163,96.9083333 366.248163,97.025 C366.808163,97.1416667 367.34483,97.27 367.858163,97.41 C369.631496,97.8766667 371.066496,98.3666667 372.163163,98.88 C373.25983,99.3933333 374.09983,100.046667 374.683163,100.84 C375.266496,101.633333 375.558163,102.66 375.558163,103.92 C375.558163,106.02 374.788163,107.711667 373.248163,108.995 C371.708163,110.278333 369.491496,110.92 366.598163,110.92 C363.471496,110.92 360.93983,110.208333 359.003163,108.785 C357.066496,107.361667 355.608163,105.646667 354.628163,103.64 L354.628163,103.64 L351.758163,105.32 C352.831496,108.166667 354.651496,110.441667 357.218163,112.145 C359.78483,113.848333 363.028163,114.7 366.948163,114.7 Z" id="LaguSans" fill="#FFFFFF" fill-rule="nonzero"></path>
        <path d="M112.28,154.16 C113.72,154.16 115.016,153.584 115.992,152.656 L115.992,148.368 L112.392,148.368 L112.392,149.36 L114.888,149.36 L114.888,152.208 C114.152,152.784 113.256,153.136 112.28,153.136 C109.832,153.136 107.848,150.976 107.848,148.288 C107.848,145.6 109.832,143.44 112.28,143.44 C113.4,143.44 114.44,143.904 115.224,144.656 L115.88,143.824 C114.92,142.944 113.656,142.416 112.28,142.416 C109.208,142.416 106.712,145.04 106.712,148.288 C106.712,151.536 109.208,154.16 112.28,154.16 Z M121.096,154.16 C122.2,154.16 123.336,153.632 124.072,152.752 L123.224,152.224 C122.616,152.944 121.864,153.28 121.112,153.28 C119.832,153.28 118.776,152.176 118.664,150.784 L124.296,150.784 C124.52,148.592 123.048,146.832 121.064,146.832 C119.128,146.832 117.544,148.512 117.544,150.512 C117.544,152.544 119.16,154.16 121.096,154.16 Z M123.176,149.952 L118.696,149.952 C118.936,148.688 119.928,147.712 121.064,147.712 C122.152,147.712 123.032,148.624 123.176,149.952 Z M127.256,154 L127.256,149.616 C127.256,148.64 128.184,147.776 129.336,147.776 C130.328,147.776 130.92,148.432 130.92,149.616 L130.92,154 L132.008,154 L132.008,149.616 C132.008,147.968 131,146.832 129.48,146.832 C128.536,146.832 127.72,147.248 127.192,147.872 L126.904,146.992 L126.168,146.992 L126.168,154 L127.256,154 Z M136.712,154.16 C137.144,154.16 137.56,154.096 137.896,154 L137.576,153.088 C137.304,153.184 137.048,153.216 136.712,153.216 C135.944,153.216 135.784,152.736 135.784,151.952 L135.784,147.888 L137.592,147.888 L137.592,146.992 L135.784,146.992 L135.784,144.8 L134.696,144.8 L134.696,146.992 L133.496,146.992 L133.496,147.888 L134.696,147.888 L134.696,151.952 C134.696,153.2 135.272,154.16 136.712,154.16 Z M141.256,154.16 C141.432,154.16 141.624,154.144 141.8,154.128 L141.656,153.184 C141.528,153.2 141.4,153.216 141.256,153.216 C140.472,153.216 140.328,152.736 140.328,151.952 L140.328,142.576 L139.24,142.576 L139.24,151.952 C139.24,153.2 139.8,154.16 141.256,154.16 Z M144.2,158.416 L145.816,154 L148.36,146.992 L147.256,146.992 L145.24,152.768 L143.112,146.992 L141.992,146.992 L144.68,154 L143.08,158.416 L144.2,158.416 Z M157.128,154.16 C158.216,154.16 159.32,153.632 160.04,152.8 L159.192,152.176 C158.632,152.848 157.912,153.216 157.128,153.216 C155.752,153.216 154.664,152.016 154.664,150.512 C154.664,148.992 155.752,147.776 157.128,147.776 C157.864,147.776 158.568,148.144 159.16,148.848 L160.008,148.224 C159.272,147.36 158.184,146.832 157.128,146.832 C155.144,146.832 153.56,148.464 153.56,150.512 C153.56,152.544 155.128,154.16 157.128,154.16 Z M164.776,154.16 C166.68,154.16 168.248,152.496 168.248,150.496 C168.248,148.496 166.68,146.832 164.776,146.832 C162.84,146.832 161.256,148.48 161.256,150.496 C161.256,152.512 162.84,154.16 164.776,154.16 Z M164.76,153.216 C163.48,153.216 162.36,152.016 162.36,150.496 C162.36,148.992 163.464,147.776 164.76,147.776 C166.072,147.776 167.144,149.04 167.144,150.496 C167.144,151.968 166.056,153.216 164.76,153.216 Z M171.176,154 L171.176,149.616 C171.176,148.64 172.104,147.776 173.256,147.776 C174.248,147.776 174.84,148.432 174.84,149.616 L174.84,154 L175.928,154 L175.928,149.616 C175.928,147.968 174.92,146.832 173.4,146.832 C172.456,146.832 171.64,147.248 171.112,147.872 L170.824,146.992 L170.088,146.992 L170.088,154 L171.176,154 Z M180.632,154.16 C181.064,154.16 181.48,154.096 181.816,154 L181.496,153.088 C181.224,153.184 180.968,153.216 180.632,153.216 C179.864,153.216 179.704,152.736 179.704,151.952 L179.704,147.888 L181.512,147.888 L181.512,146.992 L179.704,146.992 L179.704,144.8 L178.616,144.8 L178.616,146.992 L177.416,146.992 L177.416,147.888 L178.616,147.888 L178.616,151.952 C178.616,153.2 179.192,154.16 180.632,154.16 Z M184.248,154 L184.248,149.616 C184.248,148.592 185.352,147.776 186.424,147.776 C186.696,147.776 186.904,147.824 187.096,147.92 L187.416,146.992 C187.128,146.896 186.808,146.832 186.472,146.832 C185.528,146.832 184.712,147.248 184.184,147.872 L183.896,146.992 L183.16,146.992 L183.16,154 L184.248,154 Z M190.232,154.144 C191.096,154.144 191.832,153.744 192.36,153.12 L192.648,154 L193.384,154 L193.384,149.536 C193.384,147.904 192.296,146.832 190.616,146.832 C189.784,146.832 188.904,147.12 188.408,147.552 L189.128,148.192 C189.512,147.84 190.024,147.664 190.616,147.664 C191.688,147.664 192.296,148.352 192.296,149.536 L192.296,149.936 C191.768,149.76 191.144,149.632 190.568,149.632 C189,149.632 187.768,150.608 187.768,151.936 C187.768,153.184 188.872,154.144 190.232,154.144 Z M190.28,153.312 C189.464,153.312 188.872,152.736 188.872,151.936 C188.872,151.072 189.56,150.464 190.616,150.464 C191.096,150.464 191.784,150.576 192.296,150.784 L192.296,151.168 C192.296,152.416 191.288,153.312 190.28,153.312 Z M197.912,154.16 C199.432,154.16 200.488,153.424 200.488,152.24 C200.488,150.912 199.128,150.352 198.136,149.952 C196.968,149.488 196.472,149.216 196.472,148.672 C196.472,148.112 197,147.76 197.864,147.76 C198.488,147.76 198.888,147.936 199.336,148.4 L200.104,147.76 C199.544,147.184 198.792,146.832 197.816,146.832 C196.424,146.832 195.416,147.584 195.416,148.672 C195.416,149.888 196.696,150.416 197.704,150.8 C198.712,151.2 199.432,151.472 199.432,152.224 C199.432,152.928 198.808,153.216 197.912,153.216 C197.048,153.216 196.312,152.928 195.736,152.368 L195.016,153.04 C195.752,153.744 196.792,154.16 197.912,154.16 Z M204.808,154.16 C205.24,154.16 205.656,154.096 205.992,154 L205.672,153.088 C205.4,153.184 205.144,153.216 204.808,153.216 C204.04,153.216 203.88,152.736 203.88,151.952 L203.88,147.888 L205.688,147.888 L205.688,146.992 L203.88,146.992 L203.88,144.8 L202.792,144.8 L202.792,146.992 L201.592,146.992 L201.592,147.888 L202.792,147.888 L202.792,151.952 C202.792,153.2 203.368,154.16 204.808,154.16 Z M210.36,154.16 C211.464,154.16 212.6,153.632 213.336,152.752 L212.488,152.224 C211.88,152.944 211.128,153.28 210.376,153.28 C209.096,153.28 208.04,152.176 207.928,150.784 L213.56,150.784 C213.784,148.592 212.312,146.832 210.328,146.832 C208.392,146.832 206.808,148.512 206.808,150.512 C206.808,152.544 208.424,154.16 210.36,154.16 Z M212.44,149.952 L207.96,149.952 C208.2,148.688 209.192,147.712 210.328,147.712 C211.416,147.712 212.296,148.624 212.44,149.952 Z M217.816,154.16 C218.856,154.16 219.752,153.728 220.344,153.056 L220.648,154 L221.384,154 L221.384,142.576 L220.296,142.576 L220.296,147.44 C219.768,147.056 219.144,146.832 218.328,146.832 C216.264,146.832 214.904,148.336 214.904,150.608 C214.904,152.72 216.104,154.16 217.816,154.16 Z M217.976,153.216 C216.808,153.216 216.008,152.176 216.008,150.608 C216.008,148.864 216.888,147.776 218.36,147.776 C219.112,147.776 219.832,148.08 220.296,148.592 L220.296,151.264 C220.296,152.272 219.176,153.216 217.976,153.216 Z M230.104,154.16 C231.624,154.16 232.68,153.424 232.68,152.24 C232.68,150.912 231.32,150.352 230.328,149.952 C229.16,149.488 228.664,149.216 228.664,148.672 C228.664,148.112 229.192,147.76 230.056,147.76 C230.68,147.76 231.08,147.936 231.528,148.4 L232.296,147.76 C231.736,147.184 230.984,146.832 230.008,146.832 C228.616,146.832 227.608,147.584 227.608,148.672 C227.608,149.888 228.888,150.416 229.896,150.8 C230.904,151.2 231.624,151.472 231.624,152.224 C231.624,152.928 231,153.216 230.104,153.216 C229.24,153.216 228.504,152.928 227.928,152.368 L227.208,153.04 C227.944,153.744 228.984,154.16 230.104,154.16 Z M236.408,154.144 C237.272,154.144 238.008,153.744 238.536,153.12 L238.824,154 L239.56,154 L239.56,149.536 C239.56,147.904 238.472,146.832 236.792,146.832 C235.96,146.832 235.08,147.12 234.584,147.552 L235.304,148.192 C235.688,147.84 236.2,147.664 236.792,147.664 C237.864,147.664 238.472,148.352 238.472,149.536 L238.472,149.936 C237.944,149.76 237.32,149.632 236.744,149.632 C235.176,149.632 233.944,150.608 233.944,151.936 C233.944,153.184 235.048,154.144 236.408,154.144 Z M236.456,153.312 C235.64,153.312 235.048,152.736 235.048,151.936 C235.048,151.072 235.736,150.464 236.792,150.464 C237.272,150.464 237.96,150.576 238.472,150.784 L238.472,151.168 C238.472,152.416 237.464,153.312 236.456,153.312 Z M242.936,154 L242.936,149.616 C242.936,148.64 243.864,147.776 245.016,147.776 C246.008,147.776 246.6,148.432 246.6,149.616 L246.6,154 L247.688,154 L247.688,149.616 C247.688,147.968 246.68,146.832 245.16,146.832 C244.216,146.832 243.4,147.248 242.872,147.872 L242.584,146.992 L241.848,146.992 L241.848,154 L242.936,154 Z M252.2,154.16 C253.72,154.16 254.776,153.424 254.776,152.24 C254.776,150.912 253.416,150.352 252.424,149.952 C251.256,149.488 250.76,149.216 250.76,148.672 C250.76,148.112 251.288,147.76 252.152,147.76 C252.776,147.76 253.176,147.936 253.624,148.4 L254.392,147.76 C253.832,147.184 253.08,146.832 252.104,146.832 C250.712,146.832 249.704,147.584 249.704,148.672 C249.704,149.888 250.984,150.416 251.992,150.8 C253,151.2 253.72,151.472 253.72,152.224 C253.72,152.928 253.096,153.216 252.2,153.216 C251.336,153.216 250.6,152.928 250.024,152.368 L249.304,153.04 C250.04,153.744 251.08,154.16 252.2,154.16 Z M264.424,150.176 L264.424,149.232 L260.456,149.232 L260.456,150.176 L264.424,150.176 Z M277.352,154 L277.352,153.008 L274.904,153.008 L274.904,142.576 L273.8,142.576 L270.808,145.392 L271.576,146.112 L273.8,144.016 L273.8,153.008 L271.288,153.008 L271.288,154 L277.352,154 Z M283.544,154.176 C285.544,154.176 287.176,152.704 287.176,150.848 C287.176,149.584 286.376,148.48 285.224,147.936 C286.168,147.408 286.808,146.464 286.808,145.392 C286.808,143.728 285.336,142.416 283.544,142.416 C281.736,142.416 280.264,143.728 280.264,145.392 C280.264,146.464 280.904,147.424 281.864,147.936 C280.696,148.496 279.896,149.584 279.896,150.848 C279.896,152.688 281.544,154.176 283.544,154.176 Z M283.544,147.472 C282.344,147.472 281.384,146.56 281.384,145.44 C281.384,144.336 282.344,143.44 283.544,143.44 C284.744,143.44 285.688,144.336 285.688,145.44 C285.688,146.56 284.728,147.472 283.544,147.472 Z M283.544,153.152 C282.152,153.152 281.016,152.096 281.016,150.8 C281.016,149.52 282.136,148.48 283.544,148.48 C284.952,148.48 286.056,149.504 286.056,150.8 C286.056,152.112 284.952,153.152 283.544,153.152 Z M295.896,154.16 C297.416,154.16 298.472,153.424 298.472,152.24 C298.472,150.912 297.112,150.352 296.12,149.952 C294.952,149.488 294.456,149.216 294.456,148.672 C294.456,148.112 294.984,147.76 295.848,147.76 C296.472,147.76 296.872,147.936 297.32,148.4 L298.088,147.76 C297.528,147.184 296.776,146.832 295.8,146.832 C294.408,146.832 293.4,147.584 293.4,148.672 C293.4,149.888 294.68,150.416 295.688,150.8 C296.696,151.2 297.416,151.472 297.416,152.224 C297.416,152.928 296.792,153.216 295.896,153.216 C295.032,153.216 294.296,152.928 293.72,152.368 L293,153.04 C293.736,153.744 294.776,154.16 295.896,154.16 Z M302.792,154.16 C303.224,154.16 303.64,154.096 303.976,154 L303.656,153.088 C303.384,153.184 303.128,153.216 302.792,153.216 C302.024,153.216 301.864,152.736 301.864,151.952 L301.864,147.888 L303.672,147.888 L303.672,146.992 L301.864,146.992 L301.864,144.8 L300.776,144.8 L300.776,146.992 L299.576,146.992 L299.576,147.888 L300.776,147.888 L300.776,151.952 C300.776,153.2 301.352,154.16 302.792,154.16 Z M306.68,158.416 L308.296,154 L310.84,146.992 L309.736,146.992 L307.72,152.768 L305.592,146.992 L304.472,146.992 L307.16,154 L305.56,158.416 L306.68,158.416 Z M314.376,154.16 C314.552,154.16 314.744,154.144 314.92,154.128 L314.776,153.184 C314.648,153.2 314.52,153.216 314.376,153.216 C313.592,153.216 313.448,152.736 313.448,151.952 L313.448,142.576 L312.36,142.576 L312.36,151.952 C312.36,153.2 312.92,154.16 314.376,154.16 Z M319.304,154.16 C320.408,154.16 321.544,153.632 322.28,152.752 L321.432,152.224 C320.824,152.944 320.072,153.28 319.32,153.28 C318.04,153.28 316.984,152.176 316.872,150.784 L322.504,150.784 C322.728,148.592 321.256,146.832 319.272,146.832 C317.336,146.832 315.752,148.512 315.752,150.512 C315.752,152.544 317.368,154.16 319.304,154.16 Z M321.384,149.952 L316.904,149.952 C317.144,148.688 318.136,147.712 319.272,147.712 C320.36,147.712 321.24,148.624 321.384,149.952 Z M326.616,154.16 C328.136,154.16 329.192,153.424 329.192,152.24 C329.192,150.912 327.832,150.352 326.84,149.952 C325.672,149.488 325.176,149.216 325.176,148.672 C325.176,148.112 325.704,147.76 326.568,147.76 C327.192,147.76 327.592,147.936 328.04,148.4 L328.808,147.76 C328.248,147.184 327.496,146.832 326.52,146.832 C325.128,146.832 324.12,147.584 324.12,148.672 C324.12,149.888 325.4,150.416 326.408,150.8 C327.416,151.2 328.136,151.472 328.136,152.224 C328.136,152.928 327.512,153.216 326.616,153.216 C325.752,153.216 325.016,152.928 324.44,152.368 L323.72,153.04 C324.456,153.744 325.496,154.16 326.616,154.16 Z" id="Gentlycontrastedsans-18styles" fill="#FF746A" fill-rule="nonzero"></path>
    </g>
</svg>