<?xml version="1.0" encoding="UTF-8"?>
<svg width="434px" height="217px" viewBox="0 0 434 217" version="1.1" xmlns="http://www.w3.org/2000/svg" xmlns:xlink="http://www.w3.org/1999/xlink">
    <!-- Generator: Sketch 63.1 (92452) - https://sketch.com -->
    <title>retail-pani-sans</title>
    <desc>Created with Sketch.</desc>
    <g id="retail-pani-sans" stroke="none" stroke-width="1" fill="none" fill-rule="evenodd">
        <rect id="Rectangle" fill="#4C4A4C" transform="translate(217.000000, 108.500000) scale(1, -1) translate(-217.000000, -108.500000) " x="0" y="0" width="434" height="217"></rect>
        <path d="M86.6533784,113.858108 L86.6533784,96.2635135 C100.3625,95.6037162 111.065878,87.6861486 111.065878,77.7891892 C111.065878,68.7719595 103.514865,61.5141892 93.9844595,61.5141892 L80.4219595,61.5141892 L80.4219595,113.858108 L86.6533784,113.858108 Z M86.6533784,90.6185811 L86.6533784,67.0858108 L93.9844595,67.0858108 C100.069257,67.0858108 104.761149,71.8510135 104.761149,77.7891892 C104.761149,84.6070946 96.8435811,90.1054054 86.6533784,90.6185811 Z M124.188514,114.517905 C127.927365,114.517905 131.153041,112.978378 133.498986,110.485811 L135.185135,113.858108 L139.290541,113.858108 L139.290541,93.8442568 C139.290541,86.0733108 134.012162,81.0148649 126.021284,81.0148649 C122.0625,81.0148649 117.957095,82.4077703 115.611149,84.460473 L119.643243,87.9793919 C121.402703,86.3665541 123.455405,85.6334459 126.021284,85.6334459 C130.566554,85.6334459 133.132432,88.6391892 133.132432,93.8442568 L133.132432,94.5773649 C130.933108,93.9175676 128.36723,93.4043919 125.947973,93.4043919 C118.47027,93.4043919 112.532095,98.022973 112.532095,104.254392 C112.532095,110.045946 117.810473,114.517905 124.188514,114.517905 Z M124.408446,109.899324 C121.18277,109.899324 118.836824,107.553378 118.836824,104.254392 C118.836824,100.588851 121.622635,98.0962838 126.167905,98.0962838 C128.147297,98.0962838 130.933108,98.5361486 133.132432,99.2692568 L133.132432,100.735473 C133.132432,106.160473 128.660473,109.899324 124.408446,109.899324 Z M155.638851,113.858108 L155.638851,94.2841216 C155.638851,90.0320946 159.231081,86.3665541 164.142905,86.3665541 C168.394932,86.3665541 170.960811,89.0790541 170.960811,94.2841216 L170.960811,113.858108 L177.118919,113.858108 L177.118919,94.2841216 C177.118919,86.4398649 172.207095,81.0148649 165.022635,81.0148649 C161.063851,81.0148649 157.618243,82.6277027 155.272297,85.1202703 L153.512838,81.747973 L149.480743,81.747973 L149.480743,113.858108 L155.638851,113.858108 Z M190.314865,72.3641892 C192.220946,72.3641892 193.760473,70.7513514 193.760473,68.8452703 C193.760473,66.9391892 192.220946,65.3263514 190.314865,65.3263514 C188.335473,65.3263514 186.722635,66.9391892 186.722635,68.8452703 C186.722635,70.7513514 188.335473,72.3641892 190.314865,72.3641892 Z M193.393919,113.858108 L193.393919,81.747973 L187.235811,81.747973 L187.235811,113.858108 L193.393919,113.858108 Z M239.213176,114.591216 C249.110135,114.591216 256.147973,109.459459 256.147973,100.735473 C256.147973,91.1317568 247.497297,87.2462838 240.459459,84.1672297 C231.662162,80.2084459 229.096284,77.8625 229.096284,73.977027 C229.096284,69.2118243 232.835135,66.4993243 238.846622,66.4993243 C243.098649,66.4993243 245.95777,67.8922297 249.183446,71.4111486 L253.948649,67.5256757 C249.769932,62.9804054 244.858108,60.7810811 238.846622,60.7810811 C229.536149,60.7810811 222.718243,65.9861486 222.718243,73.7570946 C222.718243,82.4810811 231.295608,86.4398649 237.966892,89.3722973 C244.711486,92.4513514 249.769932,94.6506757 249.769932,100.735473 C249.769932,106.160473 245.737838,108.872973 239.286486,108.872973 C233.348311,108.872973 228.363176,106.600338 224.331081,102.494932 L219.7125,106.380405 C224.697635,111.585473 231.662162,114.591216 239.213176,114.591216 Z M272.789527,114.517905 C276.528378,114.517905 279.754054,112.978378 282.1,110.485811 L283.786149,113.858108 L287.891554,113.858108 L287.891554,93.8442568 C287.891554,86.0733108 282.613176,81.0148649 274.622297,81.0148649 C270.663514,81.0148649 266.558108,82.4077703 264.212162,84.460473 L268.244257,87.9793919 C270.003716,86.3665541 272.056419,85.6334459 274.622297,85.6334459 C279.167568,85.6334459 281.733446,88.6391892 281.733446,93.8442568 L281.733446,94.5773649 C279.534122,93.9175676 276.968243,93.4043919 274.548986,93.4043919 C267.071284,93.4043919 261.133108,98.022973 261.133108,104.254392 C261.133108,110.045946 266.411486,114.517905 272.789527,114.517905 Z M273.009459,109.899324 C269.783784,109.899324 267.437838,107.553378 267.437838,104.254392 C267.437838,100.588851 270.223649,98.0962838 274.768919,98.0962838 C276.748311,98.0962838 279.534122,98.5361486 281.733446,99.2692568 L281.733446,100.735473 C281.733446,106.160473 277.261486,109.899324 273.009459,109.899324 Z M304.239865,113.858108 L304.239865,94.2841216 C304.239865,90.0320946 307.832095,86.3665541 312.743919,86.3665541 C316.995946,86.3665541 319.561824,89.0790541 319.561824,94.2841216 L319.561824,113.858108 L325.719932,113.858108 L325.719932,94.2841216 C325.719932,86.4398649 320.808108,81.0148649 313.623649,81.0148649 C309.664865,81.0148649 306.219257,82.6277027 303.873311,85.1202703 L302.113851,81.747973 L298.081757,81.747973 L298.081757,113.858108 L304.239865,113.858108 Z M345.733784,114.591216 C352.771622,114.591216 357.756757,111.072297 357.756757,105.573986 C357.756757,99.2692568 351.378716,96.7033784 346.906757,94.8706081 C341.481757,92.7445946 339.94223,91.6449324 339.94223,89.7388514 C339.94223,87.6128378 341.921622,86.2932432 345.513851,86.2932432 C348.153041,86.2932432 349.692568,86.9530405 351.525338,88.9324324 L355.850676,85.2668919 C353.358108,82.7743243 349.839189,81.0148649 345.220608,81.0148649 C338.695946,81.0148649 334.004054,84.6070946 334.004054,89.6655405 C334.004054,95.4570946 340.015541,97.8763514 344.560811,99.6358108 C348.959459,101.468581 351.818581,102.421622 351.818581,105.427365 C351.818581,107.993243 349.692568,109.239527 345.733784,109.239527 C341.921622,109.239527 338.989189,108.139865 336.423311,105.720608 L332.391216,109.53277 C335.690203,112.685135 340.528716,114.591216 345.733784,114.591216 Z" id="PaniSans" fill="#FFFFFF" fill-rule="nonzero"></path>
        <path d="M81.952,154.051892 C83.392,154.051892 84.688,153.475892 85.664,152.547892 L85.664,148.259892 L82.064,148.259892 L82.064,149.251892 L84.56,149.251892 L84.56,152.099892 C83.824,152.675892 82.928,153.027892 81.952,153.027892 C79.504,153.027892 77.52,150.867892 77.52,148.179892 C77.52,145.491892 79.504,143.331892 81.952,143.331892 C83.072,143.331892 84.112,143.795892 84.896,144.547892 L85.552,143.715892 C84.592,142.835892 83.328,142.307892 81.952,142.307892 C78.88,142.307892 76.384,144.931892 76.384,148.179892 C76.384,151.427892 78.88,154.051892 81.952,154.051892 Z M90.768,154.051892 C91.872,154.051892 93.008,153.523892 93.744,152.643892 L92.896,152.115892 C92.288,152.835892 91.536,153.171892 90.784,153.171892 C89.504,153.171892 88.448,152.067892 88.336,150.675892 L93.968,150.675892 C94.192,148.483892 92.72,146.723892 90.736,146.723892 C88.8,146.723892 87.216,148.403892 87.216,150.403892 C87.216,152.435892 88.832,154.051892 90.768,154.051892 Z M92.848,149.843892 L88.368,149.843892 C88.608,148.579892 89.6,147.603892 90.736,147.603892 C91.824,147.603892 92.704,148.515892 92.848,149.843892 Z M98.832,154.051892 C100.736,154.051892 102.304,152.387892 102.304,150.387892 C102.304,148.387892 100.736,146.723892 98.832,146.723892 C96.896,146.723892 95.312,148.371892 95.312,150.387892 C95.312,152.403892 96.896,154.051892 98.832,154.051892 Z M98.816,153.107892 C97.536,153.107892 96.416,151.907892 96.416,150.387892 C96.416,148.883892 97.52,147.667892 98.816,147.667892 C100.128,147.667892 101.2,148.931892 101.2,150.387892 C101.2,151.859892 100.112,153.107892 98.816,153.107892 Z M105.232,153.891892 L105.232,149.507892 C105.232,148.531892 106.096,147.667892 107.136,147.667892 C108.128,147.667892 108.64,148.451892 108.64,149.507892 L108.64,153.891892 L109.728,153.891892 L109.728,149.507892 C109.728,148.531892 110.592,147.667892 111.632,147.667892 C112.624,147.667892 113.136,148.451892 113.136,149.507892 L113.136,153.891892 L114.224,153.891892 L114.224,149.507892 C114.224,147.907892 113.216,146.723892 111.712,146.723892 C110.688,146.723892 109.856,147.267892 109.392,148.051892 C108.976,147.235892 108.208,146.723892 107.216,146.723892 C106.352,146.723892 105.632,147.107892 105.152,147.699892 L104.88,146.883892 L104.144,146.883892 L104.144,153.891892 L105.232,153.891892 Z M119.52,154.051892 C120.624,154.051892 121.76,153.523892 122.496,152.643892 L121.648,152.115892 C121.04,152.835892 120.288,153.171892 119.536,153.171892 C118.256,153.171892 117.2,152.067892 117.088,150.675892 L122.72,150.675892 C122.944,148.483892 121.472,146.723892 119.488,146.723892 C117.552,146.723892 115.968,148.403892 115.968,150.403892 C115.968,152.435892 117.584,154.051892 119.52,154.051892 Z M121.6,149.843892 L117.12,149.843892 C117.36,148.579892 118.352,147.603892 119.488,147.603892 C120.576,147.603892 121.456,148.515892 121.6,149.843892 Z M127.024,154.051892 C127.456,154.051892 127.872,153.987892 128.208,153.891892 L127.888,152.979892 C127.616,153.075892 127.36,153.107892 127.024,153.107892 C126.256,153.107892 126.096,152.627892 126.096,151.843892 L126.096,147.779892 L127.904,147.779892 L127.904,146.883892 L126.096,146.883892 L126.096,144.691892 L125.008,144.691892 L125.008,146.883892 L123.808,146.883892 L123.808,147.779892 L125.008,147.779892 L125.008,151.843892 C125.008,153.091892 125.584,154.051892 127.024,154.051892 Z M130.64,153.891892 L130.64,149.507892 C130.64,148.483892 131.744,147.667892 132.816,147.667892 C133.088,147.667892 133.296,147.715892 133.488,147.811892 L133.808,146.883892 C133.52,146.787892 133.2,146.723892 132.864,146.723892 C131.92,146.723892 131.104,147.139892 130.576,147.763892 L130.288,146.883892 L129.552,146.883892 L129.552,153.891892 L130.64,153.891892 Z M135.712,144.707892 C136.064,144.707892 136.336,144.419892 136.336,144.067892 C136.336,143.715892 136.064,143.427892 135.712,143.427892 C135.36,143.427892 135.056,143.715892 135.056,144.067892 C135.056,144.419892 135.36,144.707892 135.712,144.707892 Z M136.272,153.891892 L136.272,146.883892 L135.184,146.883892 L135.184,153.891892 L136.272,153.891892 Z M141.584,154.051892 C142.672,154.051892 143.776,153.523892 144.496,152.691892 L143.648,152.067892 C143.088,152.739892 142.368,153.107892 141.584,153.107892 C140.208,153.107892 139.12,151.907892 139.12,150.403892 C139.12,148.883892 140.208,147.667892 141.584,147.667892 C142.32,147.667892 143.024,148.035892 143.616,148.739892 L144.464,148.115892 C143.728,147.251892 142.64,146.723892 141.584,146.723892 C139.6,146.723892 138.016,148.355892 138.016,150.403892 C138.016,152.435892 139.584,154.051892 141.584,154.051892 Z M152.688,154.051892 C154.208,154.051892 155.264,153.315892 155.264,152.131892 C155.264,150.803892 153.904,150.243892 152.912,149.843892 C151.744,149.379892 151.248,149.107892 151.248,148.563892 C151.248,148.003892 151.776,147.651892 152.64,147.651892 C153.264,147.651892 153.664,147.827892 154.112,148.291892 L154.88,147.651892 C154.32,147.075892 153.568,146.723892 152.592,146.723892 C151.2,146.723892 150.192,147.475892 150.192,148.563892 C150.192,149.779892 151.472,150.307892 152.48,150.691892 C153.488,151.091892 154.208,151.363892 154.208,152.115892 C154.208,152.819892 153.584,153.107892 152.688,153.107892 C151.824,153.107892 151.088,152.819892 150.512,152.259892 L149.792,152.931892 C150.528,153.635892 151.568,154.051892 152.688,154.051892 Z M158.992,154.035892 C159.856,154.035892 160.592,153.635892 161.12,153.011892 L161.408,153.891892 L162.144,153.891892 L162.144,149.427892 C162.144,147.795892 161.056,146.723892 159.376,146.723892 C158.544,146.723892 157.664,147.011892 157.168,147.443892 L157.888,148.083892 C158.272,147.731892 158.784,147.555892 159.376,147.555892 C160.448,147.555892 161.056,148.243892 161.056,149.427892 L161.056,149.827892 C160.528,149.651892 159.904,149.523892 159.328,149.523892 C157.76,149.523892 156.528,150.499892 156.528,151.827892 C156.528,153.075892 157.632,154.035892 158.992,154.035892 Z M159.04,153.203892 C158.224,153.203892 157.632,152.627892 157.632,151.827892 C157.632,150.963892 158.32,150.355892 159.376,150.355892 C159.856,150.355892 160.544,150.467892 161.056,150.675892 L161.056,151.059892 C161.056,152.307892 160.048,153.203892 159.04,153.203892 Z M165.52,153.891892 L165.52,149.507892 C165.52,148.531892 166.448,147.667892 167.6,147.667892 C168.592,147.667892 169.184,148.323892 169.184,149.507892 L169.184,153.891892 L170.272,153.891892 L170.272,149.507892 C170.272,147.859892 169.264,146.723892 167.744,146.723892 C166.8,146.723892 165.984,147.139892 165.456,147.763892 L165.168,146.883892 L164.432,146.883892 L164.432,153.891892 L165.52,153.891892 Z M174.784,154.051892 C176.304,154.051892 177.36,153.315892 177.36,152.131892 C177.36,150.803892 176,150.243892 175.008,149.843892 C173.84,149.379892 173.344,149.107892 173.344,148.563892 C173.344,148.003892 173.872,147.651892 174.736,147.651892 C175.36,147.651892 175.76,147.827892 176.208,148.291892 L176.976,147.651892 C176.416,147.075892 175.664,146.723892 174.688,146.723892 C173.296,146.723892 172.288,147.475892 172.288,148.563892 C172.288,149.779892 173.568,150.307892 174.576,150.691892 C175.584,151.091892 176.304,151.363892 176.304,152.115892 C176.304,152.819892 175.68,153.107892 174.784,153.107892 C173.92,153.107892 173.184,152.819892 172.608,152.259892 L171.888,152.931892 C172.624,153.635892 173.664,154.051892 174.784,154.051892 Z M187.008,150.067892 L187.008,149.123892 L183.04,149.123892 L183.04,150.067892 L187.008,150.067892 Z M199.936,153.891892 L199.936,152.899892 L197.488,152.899892 L197.488,142.467892 L196.384,142.467892 L193.392,145.283892 L194.16,146.003892 L196.384,143.907892 L196.384,152.899892 L193.872,152.899892 L193.872,153.891892 L199.936,153.891892 Z M206.128,154.067892 C208.128,154.067892 209.76,152.595892 209.76,150.739892 C209.76,149.475892 208.96,148.371892 207.808,147.827892 C208.752,147.299892 209.392,146.355892 209.392,145.283892 C209.392,143.619892 207.92,142.307892 206.128,142.307892 C204.32,142.307892 202.848,143.619892 202.848,145.283892 C202.848,146.355892 203.488,147.315892 204.448,147.827892 C203.28,148.387892 202.48,149.475892 202.48,150.739892 C202.48,152.579892 204.128,154.067892 206.128,154.067892 Z M206.128,147.363892 C204.928,147.363892 203.968,146.451892 203.968,145.331892 C203.968,144.227892 204.928,143.331892 206.128,143.331892 C207.328,143.331892 208.272,144.227892 208.272,145.331892 C208.272,146.451892 207.312,147.363892 206.128,147.363892 Z M206.128,153.043892 C204.736,153.043892 203.6,151.987892 203.6,150.691892 C203.6,149.411892 204.72,148.371892 206.128,148.371892 C207.536,148.371892 208.64,149.395892 208.64,150.691892 C208.64,152.003892 207.536,153.043892 206.128,153.043892 Z M218.48,154.051892 C220,154.051892 221.056,153.315892 221.056,152.131892 C221.056,150.803892 219.696,150.243892 218.704,149.843892 C217.536,149.379892 217.04,149.107892 217.04,148.563892 C217.04,148.003892 217.568,147.651892 218.432,147.651892 C219.056,147.651892 219.456,147.827892 219.904,148.291892 L220.672,147.651892 C220.112,147.075892 219.36,146.723892 218.384,146.723892 C216.992,146.723892 215.984,147.475892 215.984,148.563892 C215.984,149.779892 217.264,150.307892 218.272,150.691892 C219.28,151.091892 220,151.363892 220,152.115892 C220,152.819892 219.376,153.107892 218.48,153.107892 C217.616,153.107892 216.88,152.819892 216.304,152.259892 L215.584,152.931892 C216.32,153.635892 217.36,154.051892 218.48,154.051892 Z M225.376,154.051892 C225.808,154.051892 226.224,153.987892 226.56,153.891892 L226.24,152.979892 C225.968,153.075892 225.712,153.107892 225.376,153.107892 C224.608,153.107892 224.448,152.627892 224.448,151.843892 L224.448,147.779892 L226.256,147.779892 L226.256,146.883892 L224.448,146.883892 L224.448,144.691892 L223.36,144.691892 L223.36,146.883892 L222.16,146.883892 L222.16,147.779892 L223.36,147.779892 L223.36,151.843892 C223.36,153.091892 223.936,154.051892 225.376,154.051892 Z M229.264,158.307892 L230.88,153.891892 L233.424,146.883892 L232.32,146.883892 L230.304,152.659892 L228.176,146.883892 L227.056,146.883892 L229.744,153.891892 L228.144,158.307892 L229.264,158.307892 Z M236.96,154.051892 C237.136,154.051892 237.328,154.035892 237.504,154.019892 L237.36,153.075892 C237.232,153.091892 237.104,153.107892 236.96,153.107892 C236.176,153.107892 236.032,152.627892 236.032,151.843892 L236.032,142.467892 L234.944,142.467892 L234.944,151.843892 C234.944,153.091892 235.504,154.051892 236.96,154.051892 Z M241.888,154.051892 C242.992,154.051892 244.128,153.523892 244.864,152.643892 L244.016,152.115892 C243.408,152.835892 242.656,153.171892 241.904,153.171892 C240.624,153.171892 239.568,152.067892 239.456,150.675892 L245.088,150.675892 C245.312,148.483892 243.84,146.723892 241.856,146.723892 C239.92,146.723892 238.336,148.403892 238.336,150.403892 C238.336,152.435892 239.952,154.051892 241.888,154.051892 Z M243.968,149.843892 L239.488,149.843892 C239.728,148.579892 240.72,147.603892 241.856,147.603892 C242.944,147.603892 243.824,148.515892 243.968,149.843892 Z M249.2,154.051892 C250.72,154.051892 251.776,153.315892 251.776,152.131892 C251.776,150.803892 250.416,150.243892 249.424,149.843892 C248.256,149.379892 247.76,149.107892 247.76,148.563892 C247.76,148.003892 248.288,147.651892 249.152,147.651892 C249.776,147.651892 250.176,147.827892 250.624,148.291892 L251.392,147.651892 C250.832,147.075892 250.08,146.723892 249.104,146.723892 C247.712,146.723892 246.704,147.475892 246.704,148.563892 C246.704,149.779892 247.984,150.307892 248.992,150.691892 C250,151.091892 250.72,151.363892 250.72,152.115892 C250.72,152.819892 250.096,153.107892 249.2,153.107892 C248.336,153.107892 247.6,152.819892 247.024,152.259892 L246.304,152.931892 C247.04,153.635892 248.08,154.051892 249.2,154.051892 Z M266.656,154.051892 L266.656,153.027892 C266.144,153.027892 265.552,152.739892 265.008,152.323892 C265.504,151.635892 265.808,150.787892 265.808,149.891892 C265.808,148.803892 265.376,147.763892 264.56,147.011892 L263.792,147.747892 C264.352,148.275892 264.688,149.075892 264.688,149.923892 C264.688,150.547892 264.512,151.107892 264.224,151.587892 C264.08,151.443892 263.936,151.267892 263.824,151.107892 L260.576,146.963892 C259.936,146.147892 259.584,145.507892 259.584,144.899892 C259.584,144.019892 260.288,143.331892 261.136,143.331892 C261.808,143.331892 262.4,143.779892 262.592,144.451892 L263.68,144.147892 C263.344,143.059892 262.304,142.307892 261.136,142.307892 C259.68,142.307892 258.464,143.459892 258.464,144.899892 C258.464,145.587892 258.752,146.211892 259.072,146.739892 C258.08,147.507892 257.472,148.643892 257.472,149.939892 C257.472,152.211892 259.328,154.051892 261.6,154.051892 C262.624,154.051892 263.552,153.683892 264.272,153.091892 C264.992,153.683892 265.792,154.051892 266.656,154.051892 Z M261.632,153.027892 C259.92,153.027892 258.592,151.667892 258.592,149.923892 C258.592,149.011892 259.008,148.163892 259.68,147.587892 L259.712,147.619892 L263.136,151.891892 C263.264,152.051892 263.392,152.211892 263.536,152.371892 C263.008,152.787892 262.352,153.027892 261.632,153.027892 Z M275.152,153.891892 L277.712,146.883892 L276.592,146.883892 L274.592,152.659892 L272.592,146.883892 L271.488,146.883892 L274.032,153.891892 L275.152,153.891892 Z M280.736,154.035892 C281.6,154.035892 282.336,153.635892 282.864,153.011892 L283.152,153.891892 L283.888,153.891892 L283.888,149.427892 C283.888,147.795892 282.8,146.723892 281.12,146.723892 C280.288,146.723892 279.408,147.011892 278.912,147.443892 L279.632,148.083892 C280.016,147.731892 280.528,147.555892 281.12,147.555892 C282.192,147.555892 282.8,148.243892 282.8,149.427892 L282.8,149.827892 C282.272,149.651892 281.648,149.523892 281.072,149.523892 C279.504,149.523892 278.272,150.499892 278.272,151.827892 C278.272,153.075892 279.376,154.035892 280.736,154.035892 Z M280.784,153.203892 C279.968,153.203892 279.376,152.627892 279.376,151.827892 C279.376,150.963892 280.064,150.355892 281.12,150.355892 C281.6,150.355892 282.288,150.467892 282.8,150.675892 L282.8,151.059892 C282.8,152.307892 281.792,153.203892 280.784,153.203892 Z M287.264,153.891892 L287.264,149.507892 C287.264,148.483892 288.368,147.667892 289.44,147.667892 C289.712,147.667892 289.92,147.715892 290.112,147.811892 L290.432,146.883892 C290.144,146.787892 289.824,146.723892 289.488,146.723892 C288.544,146.723892 287.728,147.139892 287.2,147.763892 L286.912,146.883892 L286.176,146.883892 L286.176,153.891892 L287.264,153.891892 Z M292.336,144.707892 C292.688,144.707892 292.96,144.419892 292.96,144.067892 C292.96,143.715892 292.688,143.427892 292.336,143.427892 C291.984,143.427892 291.68,143.715892 291.68,144.067892 C291.68,144.419892 291.984,144.707892 292.336,144.707892 Z M292.896,153.891892 L292.896,146.883892 L291.808,146.883892 L291.808,153.891892 L292.896,153.891892 Z M297.008,154.035892 C297.872,154.035892 298.608,153.635892 299.136,153.011892 L299.424,153.891892 L300.16,153.891892 L300.16,149.427892 C300.16,147.795892 299.072,146.723892 297.392,146.723892 C296.56,146.723892 295.68,147.011892 295.184,147.443892 L295.904,148.083892 C296.288,147.731892 296.8,147.555892 297.392,147.555892 C298.464,147.555892 299.072,148.243892 299.072,149.427892 L299.072,149.827892 C298.544,149.651892 297.92,149.523892 297.344,149.523892 C295.776,149.523892 294.544,150.499892 294.544,151.827892 C294.544,153.075892 295.648,154.035892 297.008,154.035892 Z M297.056,153.203892 C296.24,153.203892 295.648,152.627892 295.648,151.827892 C295.648,150.963892 296.336,150.355892 297.392,150.355892 C297.872,150.355892 298.56,150.467892 299.072,150.675892 L299.072,151.059892 C299.072,152.307892 298.064,153.203892 297.056,153.203892 Z M305.488,154.051892 C307.552,154.051892 308.912,152.547892 308.912,150.275892 C308.912,148.163892 307.712,146.723892 306,146.723892 C304.992,146.723892 304.112,147.123892 303.536,147.763892 L303.536,142.467892 L302.448,142.467892 L302.448,153.891892 L303.136,153.891892 L303.36,153.299892 C303.92,153.779892 304.592,154.051892 305.488,154.051892 Z M305.456,153.107892 C304.704,153.107892 304,152.819892 303.536,152.307892 L303.536,149.619892 C303.536,148.611892 304.64,147.667892 305.84,147.667892 C307.024,147.667892 307.808,148.707892 307.808,150.275892 C307.808,152.019892 306.928,153.107892 305.456,153.107892 Z M312.768,154.051892 C312.944,154.051892 313.136,154.035892 313.312,154.019892 L313.168,153.075892 C313.04,153.091892 312.912,153.107892 312.768,153.107892 C311.984,153.107892 311.84,152.627892 311.84,151.843892 L311.84,142.467892 L310.752,142.467892 L310.752,151.843892 C310.752,153.091892 311.312,154.051892 312.768,154.051892 Z M317.696,154.051892 C318.8,154.051892 319.936,153.523892 320.672,152.643892 L319.824,152.115892 C319.216,152.835892 318.464,153.171892 317.712,153.171892 C316.432,153.171892 315.376,152.067892 315.264,150.675892 L320.896,150.675892 C321.12,148.483892 319.648,146.723892 317.664,146.723892 C315.728,146.723892 314.144,148.403892 314.144,150.403892 C314.144,152.435892 315.76,154.051892 317.696,154.051892 Z M319.776,149.843892 L315.296,149.843892 C315.536,148.579892 316.528,147.603892 317.664,147.603892 C318.752,147.603892 319.632,148.515892 319.776,149.843892 Z M328.416,153.891892 L328.432,147.779892 L330.112,147.779892 L330.112,146.883892 L328.432,146.883892 L328.432,144.675892 C328.432,143.987892 328.56,143.251892 329.568,143.251892 C329.904,143.251892 330.224,143.347892 330.48,143.491892 L331.056,142.707892 C330.672,142.451892 330.096,142.307892 329.52,142.307892 C328.144,142.307892 327.344,143.139892 327.344,144.675892 L327.344,146.883892 L326.208,146.883892 L326.208,147.779892 L327.344,147.779892 L327.328,153.891892 L328.416,153.891892 Z M334.256,154.051892 C336.16,154.051892 337.728,152.387892 337.728,150.387892 C337.728,148.387892 336.16,146.723892 334.256,146.723892 C332.32,146.723892 330.736,148.371892 330.736,150.387892 C330.736,152.403892 332.32,154.051892 334.256,154.051892 Z M334.24,153.107892 C332.96,153.107892 331.84,151.907892 331.84,150.387892 C331.84,148.883892 332.944,147.667892 334.24,147.667892 C335.552,147.667892 336.624,148.931892 336.624,150.387892 C336.624,151.859892 335.536,153.107892 334.24,153.107892 Z M340.656,153.891892 L340.656,149.507892 C340.656,148.531892 341.584,147.667892 342.736,147.667892 C343.728,147.667892 344.32,148.323892 344.32,149.507892 L344.32,153.891892 L345.408,153.891892 L345.408,149.507892 C345.408,147.859892 344.4,146.723892 342.88,146.723892 C341.936,146.723892 341.12,147.139892 340.592,147.763892 L340.304,146.883892 L339.568,146.883892 L339.568,153.891892 L340.656,153.891892 Z M350.112,154.051892 C350.544,154.051892 350.96,153.987892 351.296,153.891892 L350.976,152.979892 C350.704,153.075892 350.448,153.107892 350.112,153.107892 C349.344,153.107892 349.184,152.627892 349.184,151.843892 L349.184,147.779892 L350.992,147.779892 L350.992,146.883892 L349.184,146.883892 L349.184,144.691892 L348.096,144.691892 L348.096,146.883892 L346.896,146.883892 L346.896,147.779892 L348.096,147.779892 L348.096,151.843892 C348.096,153.091892 348.672,154.051892 350.112,154.051892 Z M354.944,154.051892 C356.464,154.051892 357.52,153.315892 357.52,152.131892 C357.52,150.803892 356.16,150.243892 355.168,149.843892 C354,149.379892 353.504,149.107892 353.504,148.563892 C353.504,148.003892 354.032,147.651892 354.896,147.651892 C355.52,147.651892 355.92,147.827892 356.368,148.291892 L357.136,147.651892 C356.576,147.075892 355.824,146.723892 354.848,146.723892 C353.456,146.723892 352.448,147.475892 352.448,148.563892 C352.448,149.779892 353.728,150.307892 354.736,150.691892 C355.744,151.091892 356.464,151.363892 356.464,152.115892 C356.464,152.819892 355.84,153.107892 354.944,153.107892 C354.08,153.107892 353.344,152.819892 352.768,152.259892 L352.048,152.931892 C352.784,153.635892 353.824,154.051892 354.944,154.051892 Z" id="Geometricsans-18styles&amp;variablefonts" fill="#FFFFFF" fill-rule="nonzero"></path>
    </g>
</svg>