<?xml version="1.0" encoding="UTF-8"?>
<svg width="434px" height="217px" viewBox="0 0 434 217" version="1.1" xmlns="http://www.w3.org/2000/svg" xmlns:xlink="http://www.w3.org/1999/xlink">
    <!-- Generator: Sketch 63.1 (92452) - https://sketch.com -->
    <title>retail-lagu-serif-hover</title>
    <desc>Created with Sketch.</desc>
    <g id="retail-lagu-serif-hover" stroke="none" stroke-width="1" fill="none" fill-rule="evenodd">
        <rect id="Rectangle" fill="#435659" transform="translate(217.000000, 108.500000) scale(1, -1) translate(-217.000000, -108.500000) " x="0" y="0" width="434" height="217"></rect>
        <path d="M88.48,114 L88.48,102.59 L85.68,102.59 L84.49,110.22 L61.88,110.22 L61.88,67.31 L67.97,67.31 L67.62,64.02 L50.19,64.02 L50.19,66.82 L55.72,67.94 L55.72,110.08 L50.19,111.2 L50.19,114 L88.48,114 Z M105,114.77 C109.41,114.77 113.75,113.44 116.48,110.85 C116.9,112.04 117.6,113.23 118.3,114 L127.26,114 L127.54,111.2 L122.01,110.01 L122.01,88.87 C122.01,80.19 117.67,75.85 109.55,75.85 C102.69,75.85 97.3,79 93.59,85.23 L95.55,86.28 C95.55,86.28 99.82,79.63 107.45,79.63 C112.77,79.63 115.99,82.85 115.99,88.52 L115.99,94.19 C115.99,94.19 111.23,91.74 105.42,91.74 C97.44,91.74 91.98,96.36 91.98,103.43 C91.98,110.22 96.95,114.77 105,114.77 Z M106.89,110.99 C101.64,110.99 98,108.12 98,103.36 C98,98.74 101.5,95.52 107.52,95.52 C110.67,95.52 114.17,96.5 115.99,97.2 L115.99,107.91 C114.66,109.03 111.09,110.99 106.89,110.99 Z M144.27,131.57 C154.28,131.57 162.75,126.67 162.75,117.71 C162.75,108.68 154.07,107.84 138.67,107.14 L140.56,101.89 C141.96,102.31 143.36,102.52 144.9,102.52 C152.81,102.52 158.97,96.64 158.97,89.22 C158.97,86.07 157.85,83.13 155.96,80.89 L162.4,80.89 L162.4,75.78 L152.25,77.81 C150.08,76.62 147.63,75.92 144.9,75.92 C136.99,75.92 130.76,81.8 130.76,89.22 C130.76,94.05 133.42,98.25 137.41,100.56 L132.37,108.19 C132.79,109.73 134.12,110.85 136.22,111.62 C132.16,114.35 129.29,117.78 129.29,121.49 C129.29,126.32 134.05,131.57 144.27,131.57 Z M144.9,98.81 C140.07,98.81 136.64,94.47 136.64,89.22 C136.64,83.97 140.07,79.56 144.9,79.56 C149.73,79.56 153.02,83.97 153.02,89.22 C153.02,94.47 149.73,98.81 144.9,98.81 Z M144.27,127.79 C138.25,127.79 135.45,125.13 135.45,121.35 C135.45,118.13 137.48,114.42 140.28,112.53 C147.7,113.37 156.59,111.48 156.59,118.62 C156.59,124.01 151.48,127.79 144.27,127.79 Z M182.63,114.7 C188.02,114.7 192.71,112.74 195.37,109.31 C195.58,110.64 196.7,112.88 197.75,114 L206.64,114 L206.99,111.2 L201.39,110.01 L201.46,80.89 L201.46,75.78 L189.91,78.09 L189.91,80.89 L195.44,80.89 L195.37,105.04 C192.57,109.03 189,110.92 184.94,110.92 C179.48,110.92 176.26,107.49 176.26,102.52 L176.26,75.78 L164.71,78.09 L164.71,80.89 L170.24,80.89 L170.24,102.66 C170.24,110.43 174.65,114.7 182.63,114.7 Z M247.1,114.7 C257.32,114.7 265.51,110.22 265.51,99.79 C265.51,89.08 256.9,86.63 247.52,84.6 C242.97,83.69 236.46,82.29 236.46,75.08 C236.46,70.74 238.91,67.24 246.82,67.24 C251.02,67.24 255.78,68.22 258.93,69.97 L259.98,76.62 L262.78,76.62 L262.78,68.85 C258.58,65.28 252.42,63.32 245.84,63.32 C235.83,63.32 230.16,67.73 230.16,76.13 C230.16,87.4 240.87,89.43 245.56,90.27 C253.89,91.81 259.21,93.77 259.21,100.98 C259.21,106.37 256.41,110.78 246.26,110.78 C241.01,110.78 236.74,109.59 233.45,107.42 L232.4,100.7 L229.6,100.7 L229.6,108.47 C234.29,112.46 239.75,114.7 247.1,114.7 Z M290.22,114.7 C298.2,114.7 302.96,110.57 305.34,107.14 L303.38,106.02 C299.95,109.38 296.1,110.92 291.55,110.92 C280.84,110.92 277.13,102.1 277.13,95.38 L306.39,95.38 C306.39,82.99 298.27,75.85 289.17,75.85 C279.02,75.85 270.97,84.6 270.97,95.52 C270.97,106.51 279.09,114.7 290.22,114.7 Z M300.37,91.6 L277.48,91.6 C278.88,84.88 283.85,79.63 289.31,79.63 C295.12,79.63 300.16,85.72 300.37,91.6 Z M327.95,114 L328.3,110.71 L322.21,110.71 L322.21,85.58 C323.89,83.27 327.95,79.77 332.78,79.77 C335.93,79.77 338.45,81.24 339.5,82.29 L341.81,78.79 C340.48,77.53 337.75,75.85 334.04,75.85 C330.12,75.85 325.29,77.67 322.21,81.31 L322.21,75.78 L310.66,78.09 L310.66,80.89 L316.19,80.89 L316.19,110.08 L310.66,111.2 L310.66,114 L327.95,114 Z M353.08,70.32 C354.97,70.32 356.51,68.78 356.51,66.82 C356.51,64.93 354.97,63.32 353.08,63.32 C351.05,63.32 349.44,64.93 349.44,66.82 C349.44,68.78 351.05,70.32 353.08,70.32 Z M361.97,114 L362.32,110.71 L356.23,110.71 L356.23,75.78 L344.68,78.09 L344.68,80.89 L350.21,80.89 L350.21,110.08 L344.68,111.2 L344.68,114 L361.97,114 Z M382.48,114 L382.83,110.71 L376.74,110.71 L376.74,80.26 L386.26,80.26 L386.26,76.55 L376.74,76.55 L376.74,71.65 C376.74,66.54 378.7,63.88 382.69,63.88 C385.21,63.88 387.24,65 388.78,66.89 L390.46,65.49 C389.34,63.39 386.33,60.1 381.01,60.1 C374.36,60.1 370.72,65.14 370.72,70.88 L370.72,76.06 L365.82,77.04 L365.82,80.26 L370.72,80.26 L370.72,110.08 L365.19,111.2 L365.19,114 L382.48,114 Z" id="LaguSerif" fill="#FFFFFF" fill-rule="nonzero"></path>
        <path d="M123.696,154.16 C125.136,154.16 126.432,153.584 127.408,152.656 L126.72,151.84 C125.936,152.64 124.864,153.136 123.696,153.136 C121.248,153.136 119.264,150.976 119.264,148.288 C119.264,145.6 121.248,143.44 123.696,143.44 C124.816,143.44 125.856,143.904 126.64,144.656 L127.296,143.824 C126.336,142.944 125.072,142.416 123.696,142.416 C120.624,142.416 118.128,145.04 118.128,148.288 C118.128,151.536 120.624,154.16 123.696,154.16 Z M132.032,154.16 C133.936,154.16 135.504,152.496 135.504,150.496 C135.504,148.496 133.936,146.832 132.032,146.832 C130.096,146.832 128.512,148.48 128.512,150.496 C128.512,152.512 130.096,154.16 132.032,154.16 Z M132.016,153.216 C130.736,153.216 129.616,152.016 129.616,150.496 C129.616,148.992 130.72,147.776 132.016,147.776 C133.328,147.776 134.4,149.04 134.4,150.496 C134.4,151.968 133.312,153.216 132.016,153.216 Z M138.432,154 L138.432,149.616 C138.432,148.64 139.36,147.776 140.512,147.776 C141.504,147.776 142.096,148.432 142.096,149.616 L142.096,154 L143.184,154 L143.184,149.616 C143.184,147.968 142.176,146.832 140.656,146.832 C139.712,146.832 138.896,147.248 138.368,147.872 L138.08,146.992 L137.344,146.992 L137.344,154 L138.432,154 Z M147.888,154.16 C148.32,154.16 148.736,154.096 149.072,154 L148.752,153.088 C148.48,153.184 148.224,153.216 147.888,153.216 C147.12,153.216 146.96,152.736 146.96,151.952 L146.96,147.888 L148.768,147.888 L148.768,146.992 L146.96,146.992 L146.96,144.8 L145.872,144.8 L145.872,146.992 L144.672,146.992 L144.672,147.888 L145.872,147.888 L145.872,151.952 C145.872,153.2 146.448,154.16 147.888,154.16 Z M153.44,154.16 C154.544,154.16 155.68,153.632 156.416,152.752 L155.568,152.224 C154.96,152.944 154.208,153.28 153.456,153.28 C152.176,153.28 151.12,152.176 151.008,150.784 L156.64,150.784 C156.864,148.592 155.392,146.832 153.408,146.832 C151.472,146.832 149.888,148.512 149.888,150.512 C149.888,152.544 151.504,154.16 153.44,154.16 Z M155.52,149.952 L151.04,149.952 C151.28,148.688 152.272,147.712 153.408,147.712 C154.496,147.712 155.376,148.624 155.52,149.952 Z M159.6,154 L159.6,149.616 C159.6,148.64 160.464,147.776 161.504,147.776 C162.496,147.776 163.008,148.56 163.008,149.616 L163.008,154 L164.096,154 L164.096,149.616 C164.096,148.64 164.96,147.776 166,147.776 C166.992,147.776 167.504,148.56 167.504,149.616 L167.504,154 L168.592,154 L168.592,149.616 C168.592,148.016 167.584,146.832 166.08,146.832 C165.056,146.832 164.224,147.376 163.76,148.16 C163.344,147.344 162.576,146.832 161.584,146.832 C160.72,146.832 160,147.216 159.52,147.808 L159.248,146.992 L158.512,146.992 L158.512,154 L159.6,154 Z M171.952,158.416 L171.952,153.552 C172.48,153.952 173.104,154.16 173.904,154.16 C175.968,154.16 177.328,152.656 177.328,150.384 C177.328,148.272 176.128,146.832 174.416,146.832 C173.392,146.832 172.48,147.264 171.904,147.92 L171.6,146.992 L170.864,146.992 L170.864,158.416 L171.952,158.416 Z M173.872,153.216 C173.12,153.216 172.416,152.928 171.952,152.416 L171.952,149.728 C171.952,148.72 173.056,147.776 174.256,147.776 C175.44,147.776 176.224,148.816 176.224,150.384 C176.224,152.128 175.344,153.216 173.872,153.216 Z M182.16,154.16 C184.064,154.16 185.632,152.496 185.632,150.496 C185.632,148.496 184.064,146.832 182.16,146.832 C180.224,146.832 178.64,148.48 178.64,150.496 C178.64,152.512 180.224,154.16 182.16,154.16 Z M182.144,153.216 C180.864,153.216 179.744,152.016 179.744,150.496 C179.744,148.992 180.848,147.776 182.144,147.776 C183.456,147.776 184.528,149.04 184.528,150.496 C184.528,151.968 183.44,153.216 182.144,153.216 Z M188.56,154 L188.56,149.616 C188.56,148.592 189.664,147.776 190.736,147.776 C191.008,147.776 191.216,147.824 191.408,147.92 L191.728,146.992 C191.44,146.896 191.12,146.832 190.784,146.832 C189.84,146.832 189.024,147.248 188.496,147.872 L188.208,146.992 L187.472,146.992 L187.472,154 L188.56,154 Z M194.544,154.144 C195.408,154.144 196.144,153.744 196.672,153.12 L196.96,154 L197.696,154 L197.696,149.536 C197.696,147.904 196.608,146.832 194.928,146.832 C194.096,146.832 193.216,147.12 192.72,147.552 L193.44,148.192 C193.824,147.84 194.336,147.664 194.928,147.664 C196,147.664 196.608,148.352 196.608,149.536 L196.608,149.936 C196.08,149.76 195.456,149.632 194.88,149.632 C193.312,149.632 192.08,150.608 192.08,151.936 C192.08,153.184 193.184,154.144 194.544,154.144 Z M194.592,153.312 C193.776,153.312 193.184,152.736 193.184,151.936 C193.184,151.072 193.872,150.464 194.928,150.464 C195.408,150.464 196.096,150.576 196.608,150.784 L196.608,151.168 C196.608,152.416 195.6,153.312 194.592,153.312 Z M201.072,154 L201.072,149.616 C201.072,148.592 202.176,147.776 203.248,147.776 C203.52,147.776 203.728,147.824 203.92,147.92 L204.24,146.992 C203.952,146.896 203.632,146.832 203.296,146.832 C202.352,146.832 201.536,147.248 201.008,147.872 L200.72,146.992 L199.984,146.992 L199.984,154 L201.072,154 Z M206.976,158.416 L208.592,154 L211.136,146.992 L210.032,146.992 L208.016,152.768 L205.888,146.992 L204.768,146.992 L207.456,154 L205.856,158.416 L206.976,158.416 Z M219.104,154.16 C220.624,154.16 221.68,153.424 221.68,152.24 C221.68,150.912 220.32,150.352 219.328,149.952 C218.16,149.488 217.664,149.216 217.664,148.672 C217.664,148.112 218.192,147.76 219.056,147.76 C219.68,147.76 220.08,147.936 220.528,148.4 L221.296,147.76 C220.736,147.184 219.984,146.832 219.008,146.832 C217.616,146.832 216.608,147.584 216.608,148.672 C216.608,149.888 217.888,150.416 218.896,150.8 C219.904,151.2 220.624,151.472 220.624,152.224 C220.624,152.928 220,153.216 219.104,153.216 C218.24,153.216 217.504,152.928 216.928,152.368 L216.208,153.04 C216.944,153.744 217.984,154.16 219.104,154.16 Z M226.592,154.16 C227.696,154.16 228.832,153.632 229.568,152.752 L228.72,152.224 C228.112,152.944 227.36,153.28 226.608,153.28 C225.328,153.28 224.272,152.176 224.16,150.784 L229.792,150.784 C230.016,148.592 228.544,146.832 226.56,146.832 C224.624,146.832 223.04,148.512 223.04,150.512 C223.04,152.544 224.656,154.16 226.592,154.16 Z M228.672,149.952 L224.192,149.952 C224.432,148.688 225.424,147.712 226.56,147.712 C227.648,147.712 228.528,148.624 228.672,149.952 Z M232.752,154 L232.752,149.616 C232.752,148.592 233.856,147.776 234.928,147.776 C235.2,147.776 235.408,147.824 235.6,147.92 L235.92,146.992 C235.632,146.896 235.312,146.832 234.976,146.832 C234.032,146.832 233.216,147.248 232.688,147.872 L232.4,146.992 L231.664,146.992 L231.664,154 L232.752,154 Z M237.824,144.816 C238.176,144.816 238.448,144.528 238.448,144.176 C238.448,143.824 238.176,143.536 237.824,143.536 C237.472,143.536 237.168,143.824 237.168,144.176 C237.168,144.528 237.472,144.816 237.824,144.816 Z M238.384,154 L238.384,146.992 L237.296,146.992 L237.296,154 L238.384,154 Z M242.096,154 L242.112,147.888 L243.792,147.888 L243.792,146.992 L242.112,146.992 L242.112,144.784 C242.112,144.096 242.24,143.36 243.248,143.36 C243.584,143.36 243.904,143.456 244.16,143.6 L244.736,142.816 C244.352,142.56 243.776,142.416 243.2,142.416 C241.824,142.416 241.024,143.248 241.024,144.784 L241.024,146.992 L239.888,146.992 L239.888,147.888 L241.024,147.888 L241.008,154 L242.096,154 Z M253.008,150.176 L253.008,149.232 L249.04,149.232 L249.04,150.176 L253.008,150.176 Z M265.936,154 L265.936,153.008 L263.488,153.008 L263.488,142.576 L262.384,142.576 L259.392,145.392 L260.16,146.112 L262.384,144.016 L262.384,153.008 L259.872,153.008 L259.872,154 L265.936,154 Z M272.128,154.176 C274.128,154.176 275.76,152.704 275.76,150.848 C275.76,149.584 274.96,148.48 273.808,147.936 C274.752,147.408 275.392,146.464 275.392,145.392 C275.392,143.728 273.92,142.416 272.128,142.416 C270.32,142.416 268.848,143.728 268.848,145.392 C268.848,146.464 269.488,147.424 270.448,147.936 C269.28,148.496 268.48,149.584 268.48,150.848 C268.48,152.688 270.128,154.176 272.128,154.176 Z M272.128,147.472 C270.928,147.472 269.968,146.56 269.968,145.44 C269.968,144.336 270.928,143.44 272.128,143.44 C273.328,143.44 274.272,144.336 274.272,145.44 C274.272,146.56 273.312,147.472 272.128,147.472 Z M272.128,153.152 C270.736,153.152 269.6,152.096 269.6,150.8 C269.6,149.52 270.72,148.48 272.128,148.48 C273.536,148.48 274.64,149.504 274.64,150.8 C274.64,152.112 273.536,153.152 272.128,153.152 Z M284.48,154.16 C286,154.16 287.056,153.424 287.056,152.24 C287.056,150.912 285.696,150.352 284.704,149.952 C283.536,149.488 283.04,149.216 283.04,148.672 C283.04,148.112 283.568,147.76 284.432,147.76 C285.056,147.76 285.456,147.936 285.904,148.4 L286.672,147.76 C286.112,147.184 285.36,146.832 284.384,146.832 C282.992,146.832 281.984,147.584 281.984,148.672 C281.984,149.888 283.264,150.416 284.272,150.8 C285.28,151.2 286,151.472 286,152.224 C286,152.928 285.376,153.216 284.48,153.216 C283.616,153.216 282.88,152.928 282.304,152.368 L281.584,153.04 C282.32,153.744 283.36,154.16 284.48,154.16 Z M291.376,154.16 C291.808,154.16 292.224,154.096 292.56,154 L292.24,153.088 C291.968,153.184 291.712,153.216 291.376,153.216 C290.608,153.216 290.448,152.736 290.448,151.952 L290.448,147.888 L292.256,147.888 L292.256,146.992 L290.448,146.992 L290.448,144.8 L289.36,144.8 L289.36,146.992 L288.16,146.992 L288.16,147.888 L289.36,147.888 L289.36,151.952 C289.36,153.2 289.936,154.16 291.376,154.16 Z M295.264,158.416 L296.88,154 L299.424,146.992 L298.32,146.992 L296.304,152.768 L294.176,146.992 L293.056,146.992 L295.744,154 L294.144,158.416 L295.264,158.416 Z M302.96,154.16 C303.136,154.16 303.328,154.144 303.504,154.128 L303.36,153.184 C303.232,153.2 303.104,153.216 302.96,153.216 C302.176,153.216 302.032,152.736 302.032,151.952 L302.032,142.576 L300.944,142.576 L300.944,151.952 C300.944,153.2 301.504,154.16 302.96,154.16 Z M307.888,154.16 C308.992,154.16 310.128,153.632 310.864,152.752 L310.016,152.224 C309.408,152.944 308.656,153.28 307.904,153.28 C306.624,153.28 305.568,152.176 305.456,150.784 L311.088,150.784 C311.312,148.592 309.84,146.832 307.856,146.832 C305.92,146.832 304.336,148.512 304.336,150.512 C304.336,152.544 305.952,154.16 307.888,154.16 Z M309.968,149.952 L305.488,149.952 C305.728,148.688 306.72,147.712 307.856,147.712 C308.944,147.712 309.824,148.624 309.968,149.952 Z M315.2,154.16 C316.72,154.16 317.776,153.424 317.776,152.24 C317.776,150.912 316.416,150.352 315.424,149.952 C314.256,149.488 313.76,149.216 313.76,148.672 C313.76,148.112 314.288,147.76 315.152,147.76 C315.776,147.76 316.176,147.936 316.624,148.4 L317.392,147.76 C316.832,147.184 316.08,146.832 315.104,146.832 C313.712,146.832 312.704,147.584 312.704,148.672 C312.704,149.888 313.984,150.416 314.992,150.8 C316,151.2 316.72,151.472 316.72,152.224 C316.72,152.928 316.096,153.216 315.2,153.216 C314.336,153.216 313.6,152.928 313.024,152.368 L312.304,153.04 C313.04,153.744 314.08,154.16 315.2,154.16 Z" id="Contemporaryserif-18styles" fill="#82C1CC" fill-rule="nonzero"></path>
    </g>
</svg>