<?xml version="1.0" encoding="UTF-8"?>
<svg width="429px" height="132px" viewBox="0 0 429 132" version="1.1" xmlns="http://www.w3.org/2000/svg" xmlns:xlink="http://www.w3.org/1999/xlink">
    <!-- Generator: Sketch 41.2 (35397) - http://www.bohemiancoding.com/sketch -->
    <title>Group 2 Copy 3</title>
    <desc>Created with Sketch.</desc>
    <defs></defs>
    <g id="Page-1" stroke="none" stroke-width="1" fill="none" fill-rule="evenodd">
        <g id="Home-Copy-2" transform="translate(-213.000000, -627.000000)" fill="#2E6F88">
            <g id="Group-11" transform="translate(183.000000, 593.000000)">
                <g id="Group-2-Copy-3" transform="translate(30.000000, 34.000000)">
                    <path d="M302.452926,108.864 L302.452926,114.424 L341.933949,114.424 L341.933949,106.64 L321.356234,106.64 L302.452926,106.64 L302.452926,108.864 Z M409.201018,106.64 L388.623303,106.64 L388.623303,114.424 L428.104326,114.424 L428.104326,108.864 L428.104326,106.64 L409.201018,106.64 Z M302.452926,121.096 L302.452926,128.88 L341.933949,128.88 L341.933949,121.096 L302.452926,121.096 Z M359.771971,114.424 L356.96004,106.64 L373.276383,106.64 L370.404413,114.424 L359.771971,114.424 Z M362.182199,121.096 L364.990545,128.870074 L364.969556,128.88 L365.070753,128.88 L367.942724,121.096 L362.182199,121.096 Z M388.623303,121.096 L388.623303,128.88 L428.104326,128.88 L428.104326,121.096 L388.623303,121.096 Z M318.020356,99.968 L318.020356,91.072 L341.933949,91.072 L341.933949,99.968 L318.020356,99.968 Z M354.549812,99.968 L351.336176,91.072 L379.020325,91.072 L375.738073,99.968 L354.549812,99.968 Z M388.623303,99.968 L388.623303,91.072 L412.536896,91.072 L412.536896,99.968 L388.623303,99.968 Z M318.020356,84.4 L318.020356,76.616 L341.933949,76.616 L341.933949,84.4 L318.020356,84.4 Z M348.925948,84.4 L346.114016,76.616 L384.353985,76.616 L381.482014,84.4 L348.925948,84.4 Z M388.623303,84.4 L388.623303,76.616 L412.536896,76.616 L412.536896,84.4 L388.623303,84.4 Z M318.020356,69.944 L318.020356,61.048 L361.976107,61.048 L364.911679,69.944 L343.703789,69.944 L341.933949,65.0447211 L341.933949,69.944 L318.020356,69.944 Z M386.815674,69.944 L388.623303,65.0447211 L388.623303,69.944 L412.536896,69.944 L412.536896,61.048 L368.581145,61.048 L365.645573,69.944 L386.815674,69.944 Z M318.020356,54.376 L318.020356,46.592 L357.205802,46.592 L359.774427,54.376 L318.020356,54.376 Z M412.536896,54.376 L412.536896,46.592 L373.35145,46.592 L370.782824,54.376 L412.536896,54.376 Z M310.236641,39.92 L302.452926,39.92 L302.452926,32.136 L352.435496,32.136 L355.004122,39.92 L310.236641,39.92 Z M420.320611,39.92 L428.104326,39.92 L428.104326,32.136 L378.121756,32.136 L375.55313,39.92 L420.320611,39.92 Z M302.452926,25.464 L302.452926,17.68 L347.665191,17.68 L350.233817,25.464 L302.452926,25.464 Z M380.323435,25.464 L382.892061,17.68 L428.104326,17.68 L428.104326,25.464 L380.323435,25.464 Z" id="M"></path>
                    <g id="Bee" transform="translate(144.554707, 27.688000)">
                        <path d="M37.1964045,72.61465 C35.0782992,80.7393142 27.6910784,86.736 18.9033079,86.736 C8.46329922,86.736 0,78.2723909 0,67.832 C0,59.7564696 5.06347055,52.8636194 12.1886284,50.1553426 L50.82124,30.8108107 L37.1964045,72.61465 Z" id="Oval-5"></path>
                        <path d="M133.15379,72.61465 C131.035685,80.7393142 123.648464,86.736 114.860694,86.736 C104.420685,86.736 95.9573859,78.2723909 95.9573859,67.832 C95.9573859,59.7564696 101.020856,52.8636194 108.146014,50.1553426 L146.778626,30.8108107 L133.15379,72.61465 Z" id="Oval-5" transform="translate(121.368006, 58.773405) scale(-1, 1) translate(-121.368006, -58.773405) "></path>
                        <path d="M50.0381679,45.592 L50.0381679,57.824 L96.7381687,57.824 L96.7381687,45.592 L50.0381679,45.592 Z M52.8467796,34.472 C56.7979589,27.1854494 64.5150859,22.24 73.3881683,22.24 C82.2622995,22.24 89.9780262,27.1868178 93.9289218,34.472 L52.8467796,34.472 Z M50.0381679,68.944 L50.0381679,80.0726502 C50.0381679,80.4425096 50.0467698,80.8103599 50.0637845,81.1760121 L96.7125648,81.176 C96.7295711,80.8103582 96.7381687,80.4425121 96.7381687,80.0726502 L96.7381687,68.944 L50.0381679,68.944 Z M53.4907538,92.296 C57.6000817,98.967985 64.9733255,103.416 73.3881683,103.416 C81.8020969,103.416 89.1766089,98.9691305 93.2862832,92.296 L53.4907538,92.296 Z" id="Rectangle-1"></path>
                        <ellipse id="Oval-3" cx="62.2697201" cy="11.12" rx="11.1195929" ry="11.12"></ellipse>
                        <ellipse id="Oval-3" cx="85.6208651" cy="11.12" rx="11.1195929" ry="11.12"></ellipse>
                    </g>
                    <g id="Eye">
                        <path d="M0.751469491,85.6122094 C0.751469491,85.6122094 15.403549,43.2102444 64.333391,43.2102444 C113.263233,43.2102444 127.839365,86.0889642 127.839365,86.0889642 C127.839365,86.0889642 113.38125,128.468725 64.333391,128.468725 C15.2855321,128.468725 0.751469491,85.6122094 0.751469491,85.6122094 Z M65.0496183,122.208 C85.0084584,122.208 101.188295,106.276501 101.188295,86.624 C101.188295,66.9714995 85.0084584,51.04 65.0496183,51.04 C45.0907782,51.04 28.9109415,66.9714995 28.9109415,86.624 C28.9109415,106.276501 45.0907782,122.208 65.0496183,122.208 Z" id="Combined-Shape"></path>
                        <ellipse id="Oval-2" cx="64.4936387" cy="86.624" rx="15.56743" ry="15.568"></ellipse>
                        <path d="M64.4936387,0.826668076 C61.5264179,0.770343284 42.1172458,0.912133582 26.063738,13.5209768 C8.63282211,27.2116723 3.2613265,39.262674 3.2613265,39.262674 L3.2613265,51.9296001 C3.2613265,51.9296001 14.172919,39.027363 30.724743,31.0469335 C45.8353052,23.7614055 61.8237921,23.0746297 64.4936387,23.0102669 C67.1634853,23.0746297 83.1519721,23.7614055 98.2625344,31.0469335 C114.814358,39.027363 125.725951,51.9296001 125.725951,51.9296001 L125.725951,39.262674 C125.725951,39.262674 120.354455,27.2116723 102.923539,13.5209768 C86.8700316,0.912133582 67.4608594,0.770343284 64.4936387,0.826668076 Z" id="Path-2"></path>
                    </g>
                </g>
            </g>
        </g>
    </g>
</svg>