<?xml version="1.0" encoding="UTF-8"?>
<svg width="64px" height="11px" viewBox="0 0 64 11" version="1.1" xmlns="http://www.w3.org/2000/svg" xmlns:xlink="http://www.w3.org/1999/xlink">
    <!-- Generator: Sketch 41.2 (35397) - http://www.bohemiancoding.com/sketch -->
    <title>wave-alt</title>
    <desc>Created with Sketch.</desc>
    <defs></defs>
    <g id="Page-1" stroke="none" stroke-width="1" fill="none" fill-rule="evenodd">
        <g id="wave-alt" fill="#2E6F88">
            <path d="M63.9955364,1.55951704 C62.361565,1.55951704 61.49226,2.26079664 60.48612,3.0717455 C59.4065318,3.94205663 58.1820594,4.92907999 55.9967232,4.92907999 C53.8123932,4.92907999 52.5879208,3.94205663 51.5073264,3.0717455 C50.5001802,2.26079664 49.6318814,1.55951704 47.9969039,1.55951704 C46.3629325,1.55951704 45.4936275,2.26079664 44.4874874,3.0717455 C43.4068931,3.94205663 42.1834268,4.92907999 39.9980906,4.92907999 C37.8137606,4.92907999 36.5882821,3.94205663 35.5086938,3.0717455 C34.5015477,2.26079664 33.6332488,1.55951704 31.9982713,1.55951704 C30.3642999,1.55951704 29.4939888,2.26079664 28.4878487,3.0717455 C27.4072543,3.94205663 26.1837881,4.92907999 23.9994581,4.92907999 C21.8151281,4.92907999 20.5896495,3.94205663 19.5100613,3.0717455 C18.5029151,2.26079664 17.6336101,1.55951704 15.9986326,1.55951704 C14.3646612,1.55951704 13.4953562,2.26079664 12.4892162,3.0717455 C11.4086218,3.94205663 10.1851555,4.92907999 7.99981936,4.92907999 C5.81548936,4.92907999 4.5900108,3.94205663 3.51042256,3.0717455 C2.50327639,2.26079664 1.63497754,1.55951704 0,1.55951704 L0,0 C2.18433,0 3.40980855,0.987023367 4.4893968,1.85733449 C5.49654297,2.66928949 6.36484181,3.36956295 7.99981936,3.36956295 C9.63379076,3.36956295 10.5030957,2.66928949 11.5092358,1.85733449 C12.5908363,0.987023367 13.8132964,0 15.9986326,0 C18.1829626,0 19.4084411,0.987023367 20.4880294,1.85733449 C21.4951755,2.66928949 22.3644805,3.36956295 23.9994581,3.36956295 C25.6334295,3.36956295 26.5027345,2.66928949 27.5088745,1.85733449 C28.5894689,0.987023367 29.8129351,0 31.9982713,0 C34.1826013,0 35.4070737,0.987023367 36.4876681,1.85733449 C37.4948143,2.66928949 38.3631131,3.36956295 39.9980906,3.36956295 C41.632062,3.36956295 42.501367,2.66928949 43.5075071,1.85733449 C44.5881014,0.987023367 45.8115677,0 47.9969039,0 C50.1812339,0 51.4067124,0.987023367 52.4863007,1.85733449 C53.4934468,2.66928949 54.3617457,3.36956295 55.9967232,3.36956295 C57.6317008,3.36956295 58.5010057,2.66928949 59.5081519,1.85733449 C60.5877402,0.987023367 61.8122126,0 63.9955364,0 C63.9952711,0.0160841897 64.0057108,1.57368524 63.9955364,1.55951704 Z" id="Fill-1"></path>
            <path d="M63.9955364,7.55951704 C62.361565,7.55951704 61.49226,8.26079664 60.48612,9.0717455 C59.4065318,9.94205663 58.1820594,10.92908 55.9967232,10.92908 C53.8123932,10.92908 52.5879208,9.94205663 51.5073264,9.0717455 C50.5001802,8.26079664 49.6318814,7.55951704 47.9969039,7.55951704 C46.3629325,7.55951704 45.4936275,8.26079664 44.4874874,9.0717455 C43.4068931,9.94205663 42.1834268,10.92908 39.9980906,10.92908 C37.8137606,10.92908 36.5882821,9.94205663 35.5086938,9.0717455 C34.5015477,8.26079664 33.6332488,7.55951704 31.9982713,7.55951704 C30.3642999,7.55951704 29.4939888,8.26079664 28.4878487,9.0717455 C27.4072543,9.94205663 26.1837881,10.92908 23.9994581,10.92908 C21.8151281,10.92908 20.5896495,9.94205663 19.5100613,9.0717455 C18.5029151,8.26079664 17.6336101,7.55951704 15.9986326,7.55951704 C14.3646612,7.55951704 13.4953562,8.26079664 12.4892162,9.0717455 C11.4086218,9.94205663 10.1851555,10.92908 7.99981936,10.92908 C5.81548936,10.92908 4.5900108,9.94205663 3.51042256,9.0717455 C2.50327639,8.26079664 1.63497754,7.55951704 0,7.55951704 L0,6 C2.18433,6 3.40980855,6.98702337 4.4893968,7.85733449 C5.49654297,8.66928949 6.36484181,9.36956295 7.99981936,9.36956295 C9.63379076,9.36956295 10.5030957,8.66928949 11.5092358,7.85733449 C12.5908363,6.98702337 13.8132964,6 15.9986326,6 C18.1829626,6 19.4084411,6.98702337 20.4880294,7.85733449 C21.4951755,8.66928949 22.3644805,9.36956295 23.9994581,9.36956295 C25.6334295,9.36956295 26.5027345,8.66928949 27.5088745,7.85733449 C28.5894689,6.98702337 29.8129351,6 31.9982713,6 C34.1826013,6 35.4070737,6.98702337 36.4876681,7.85733449 C37.4948143,8.66928949 38.3631131,9.36956295 39.9980906,9.36956295 C41.632062,9.36956295 42.501367,8.66928949 43.5075071,7.85733449 C44.5881014,6.98702337 45.8115677,6 47.9969039,6 C50.1812339,6 51.4067124,6.98702337 52.4863007,7.85733449 C53.4934468,8.66928949 54.3617457,9.36956295 55.9967232,9.36956295 C57.6317008,9.36956295 58.5010057,8.66928949 59.5081519,7.85733449 C60.5877402,6.98702337 61.8122126,6 63.9955364,6 C63.9952711,6.01608419 64.0057108,7.57368524 63.9955364,7.55951704 Z" id="Fill-1"></path>
        </g>
    </g>
</svg>