<?xml version="1.0" encoding="UTF-8"?>
<svg width="12px" height="12px" viewBox="0 0 12 12" version="1.1" xmlns="http://www.w3.org/2000/svg" xmlns:xlink="http://www.w3.org/1999/xlink">
    <!-- Generator: Sketch 63.1 (92452) - https://sketch.com -->
    <title>Artboard Copy 3</title>
    <desc>Created with Sketch.</desc>
    <g id="Artboard-Copy-3" stroke="none" stroke-width="1" fill="none" fill-rule="evenodd">
        <path d="M6.49315068,1.23341523 C6.3444227,1.38902539 6.27005871,1.57739558 6.27005871,1.7985258 C6.27005871,2.01965602 6.34050881,2.2039312 6.481409,2.35135135 L9.20547945,5.2014742 L0.75146771,5.2014742 C0.532289628,5.2014742 0.352250489,5.27518428 0.211350294,5.42260442 C0.0704500978,5.57002457 0,5.75429975 0,5.97542998 C0,6.1965602 0.0704500978,6.38493038 0.211350294,6.54054054 C0.352250489,6.6961507 0.532289628,6.77395577 0.75146771,6.77395577 L9.25244618,6.77395577 L6.481409,9.64864865 C6.41878669,9.73054873 6.36790607,9.82063882 6.32876712,9.91891892 C6.28962818,10.017199 6.27005871,10.1154791 6.27005871,10.2137592 C6.27005871,10.3120393 6.28962818,10.4103194 6.32876712,10.5085995 C6.36790607,10.6068796 6.42270059,10.6928747 6.49315068,10.7665848 C6.56360078,10.8402948 6.64579256,10.8976249 6.73972603,10.9385749 C6.83365949,10.979525 6.92759295,11 7.02152642,11 C7.22504892,11 7.40508806,10.9262899 7.56164384,10.7788698 L12,6.01228501 L7.56164384,1.24570025 C7.40508806,1.08190008 7.22504892,1 7.02152642,1 C6.81800391,1 6.64187867,1.07780508 6.49315068,1.23341523 Z" id="Path" fill="#F6EDE9"></path>
    </g>
</svg>