<svg width="16" height="16" viewBox="0 0 16 16" fill="none" xmlns="http://www.w3.org/2000/svg">
<path fill-rule="evenodd" clip-rule="evenodd" d="M4.99531 9.6C4.99531 9.38669 5.0805 9.18221 5.23195 9.032C5.38216 8.88055 5.58664 8.79536 5.79995 8.79536C6.01326 8.79536 6.21774 8.88055 6.36795 9.032L7.39995 10.072V0.8C7.39995 0.358172 7.75812 0 8.19995 0C8.64178 0 8.99995 0.358172 8.99995 0.8V10.072L10.032 9.032C10.3456 8.7183 10.8543 8.7183 11.168 9.032C11.4816 9.3457 11.4816 9.8543 11.168 10.168L8.76795 12.568C8.61774 12.7194 8.41326 12.8046 8.19995 12.8046C7.98664 12.8046 7.78216 12.7194 7.63195 12.568L5.23195 10.168C5.0805 10.0178 4.99531 9.81331 4.99531 9.6ZM11.4 5.6H13C14.3255 5.6 15.4 6.67452 15.4 8V13.6C15.4 14.9255 14.3255 16 13 16H3.4C2.07452 16 1 14.9255 1 13.6V8C1 6.67452 2.07452 5.6 3.4 5.6H5C5.44183 5.6 5.8 5.95817 5.8 6.4C5.8 6.84183 5.44183 7.2 5 7.2H3.4C2.95817 7.2 2.6 7.55817 2.6 8V13.6C2.6 14.0418 2.95817 14.4 3.4 14.4H13C13.4418 14.4 13.8 14.0418 13.8 13.6V8C13.8 7.55817 13.4418 7.2 13 7.2H11.4C10.9582 7.2 10.6 6.84183 10.6 6.4C10.6 5.95817 10.9582 5.6 11.4 5.6Z" fill="#222225"/>
</svg>
