<?xml version="1.0" encoding="UTF-8"?>
<svg width="40px" height="40px" viewBox="0 0 40 40" version="1.1" xmlns="http://www.w3.org/2000/svg" xmlns:xlink="http://www.w3.org/1999/xlink">
    <!-- Generator: Sketch 41.2 (35397) - http://www.bohemiancoding.com/sketch -->
    <title>twitter</title>
    <desc>Created with Sketch.</desc>
    <defs></defs>
    <g id="Page-1" stroke="none" stroke-width="1" fill="none" fill-rule="evenodd">
        <g id="Home-Copy-2" transform="translate(-1183.000000, -2293.000000)" fill="#FFFFFF">
            <g id="twitter" transform="translate(1183.000000, 2293.000000)">
                <path d="M27.9525,15.9225 C27.96125,16.09875 27.965,16.275 27.965,16.4525 C27.965,21.875 23.8375,28.1275 16.29,28.1275 C13.9725,28.1275 11.81625,27.44875 10,26.28375 C10.3225,26.32125 10.64875,26.34 10.97875,26.34 C12.9025,26.34 14.67,25.68625 16.07375,24.585 C14.28,24.55125 12.76375,23.36375 12.2425,21.73625 C12.4925,21.7825 12.74875,21.80875 13.01375,21.80875 C13.38875,21.80875 13.75125,21.7575 14.09375,21.665 C12.21875,21.28625 10.80375,19.62875 10.80375,17.64125 L10.80375,17.59 C11.3575,17.8975 11.99,18.08125 12.6625,18.1025 C11.56125,17.36875 10.8375,16.11125 10.8375,14.6875 C10.8375,13.935 11.04,13.23 11.3925,12.625 C13.415,15.1075 16.44,16.74125 19.85,16.91125 C19.78,16.61125 19.74375,16.29875 19.74375,15.97625 C19.74375,13.71125 21.58125,11.875 23.8475,11.875 C25.02625,11.875 26.09375,12.3725 26.8425,13.16875 C27.77625,12.98625 28.655,12.64375 29.44875,12.1725 C29.14125,13.1325 28.49125,13.935 27.64375,14.44375 C28.47375,14.34625 29.265,14.12375 30,13.79875 C29.45125,14.62125 28.755,15.34375 27.9525,15.9225 Z M20,0 C8.955,0 0,8.955 0,20 C0,31.0475 8.955,40 20,40 C31.045,40 40,31.0475 40,20 C40,8.955 31.045,0 20,0 L20,0 Z" id="Fill-488"></path>
            </g>
        </g>
    </g>
</svg>