<svg width="12" height="12" viewBox="0 0 12 12" fill="none" xmlns="http://www.w3.org/2000/svg">
<path fill-rule="evenodd" clip-rule="evenodd" d="M6.49315 2.23342C6.34442 2.38903 6.27006 2.5774 6.27006 2.79853C6.27006 3.01966 6.34051 3.20393 6.48141 3.35135L9.20548 6.20147H0.751468C0.53229 6.20147 0.35225 6.27518 0.21135 6.4226C0.0704501 6.57002 0 6.7543 0 6.97543C0 7.19656 0.0704501 7.38493 0.21135 7.54054C0.35225 7.69615 0.53229 7.77396 0.751468 7.77396H9.25245L6.48141 10.6486C6.41879 10.7305 6.36791 10.8206 6.32877 10.9189C6.28963 11.0172 6.27006 11.1155 6.27006 11.2138C6.27006 11.312 6.28963 11.4103 6.32877 11.5086C6.36791 11.6069 6.4227 11.6929 6.49315 11.7666C6.5636 11.8403 6.64579 11.8976 6.73973 11.9386C6.83366 11.9795 6.92759 12 7.02153 12C7.22505 12 7.40509 11.9263 7.56164 11.7789L12 7.01229L7.56164 2.2457C7.40509 2.0819 7.22505 2 7.02153 2C6.818 2 6.64188 2.07781 6.49315 2.23342Z" fill="#F6EDE9"/>
</svg>
