<?xml version="1.0" encoding="UTF-8"?>
<svg width="16px" height="14px" viewBox="0 0 16 14" version="1.1" xmlns="http://www.w3.org/2000/svg" xmlns:xlink="http://www.w3.org/1999/xlink">
    <!-- Generator: Sketch 63.1 (92452) - https://sketch.com -->
    <title>arrow-right copy</title>
    <desc>Created with Sketch.</desc>
    <g id="Page-1" stroke="none" stroke-width="1" fill="none" fill-rule="evenodd">
        <g id="arrow-right-copy" fill="#FFFFFF" fill-rule="nonzero">
            <path d="M8.65753425,0.8034398 C8.45923027,1.00573301 8.36007828,1.25061425 8.36007828,1.53808354 C8.36007828,1.82555283 8.45401174,2.06511057 8.64187867,2.25675676 L12.2739726,5.96191646 L1.00195695,5.96191646 C0.709719504,5.96191646 0.469667319,6.05773956 0.281800391,6.24938575 C0.0939334638,6.44103194 0,6.68058968 0,6.96805897 C0,7.25552826 0.0939334638,7.5004095 0.281800391,7.7027027 C0.469667319,7.9049959 0.709719504,8.00614251 1.00195695,8.00614251 L12.3365949,8.00614251 L8.64187867,11.7432432 C8.55838226,11.8497133 8.49054142,11.9668305 8.43835616,12.0945946 C8.38617091,12.2223587 8.36007828,12.3501229 8.36007828,12.477887 C8.36007828,12.6056511 8.38617091,12.7334152 8.43835616,12.8611794 C8.49054142,12.9889435 8.56360078,13.1007371 8.65753425,13.1965602 C8.75146771,13.2923833 8.86105675,13.3669124 8.98630137,13.4201474 C9.11154599,13.4733825 9.23679061,13.5 9.36203523,13.5 C9.63339856,13.5 9.87345075,13.4041769 10.0821918,13.2125307 L16,7.01597052 L10.0821918,0.81941032 C9.87345075,0.60647011 9.63339856,0.5 9.36203523,0.5 C9.09067189,0.5 8.85583823,0.6011466 8.65753425,0.8034398 Z" id="Path"></path>
        </g>
    </g>
</svg>