<?xml version="1.0" encoding="UTF-8"?>
<svg width="486px" height="638px" viewBox="0 0 486 638" version="1.1" xmlns="http://www.w3.org/2000/svg" xmlns:xlink="http://www.w3.org/1999/xlink">
    <!-- Generator: Sketch 62 (91390) - https://sketch.com -->
    <title>letters</title>
    <desc>Created with Sketch.</desc>
    <g id="letters" stroke="none" stroke-width="1" fill="none" fill-rule="evenodd" fill-opacity="0.2">
        <path d="M461,605 L461,590.167575 C428.258065,590.167575 397.854839,571.43188 366.672043,540.986376 C398.634409,505.856948 417.344086,459.798365 417.344086,409.055858 C417.344086,355.97139 397.075269,306.009537 358.876344,271.660763 L347.962366,281.809264 C382.263441,313.816076 400.973118,359.874659 400.973118,409.055858 C400.973118,455.895095 383.822581,498.050409 355.758065,530.057221 C334.709677,506.637602 312.102151,478.53406 288.715054,447.307902 L150.731183,266.976839 C107.854839,212.331063 88.3655914,181.104905 88.3655914,146.756131 C88.3655914,92.1103542 134.360215,46.8324251 190.489247,46.8324251 C234.924731,46.8324251 273.903226,76.4972752 286.376344,119.433243 L301.967742,114.749319 C287.155914,65.5681199 241.94086,32 190.489247,32 C126.564516,32 72.7741935,83.5231608 72.7741935,146.756131 C72.7741935,180.324251 87.5860215,208.427793 115.650538,247.46049 C61.0806452,283.370572 26,342.700272 26,409.055858 C26,517.566757 113.311828,605 221.672043,605 C273.903226,605 321.456989,584.702997 356.537634,551.915531 C390.05914,584.702997 423.580645,605 461,605 Z M221.672043,590.167575 C121.887097,590.167575 42.3709677,509.760218 42.3709677,409.055858 C42.3709677,348.16485 73.5537634,291.957766 125.005376,259.1703 C128.903226,265.415531 133.580645,270.880109 138.258065,277.125341 L277.801075,458.237057 C301.188172,489.463215 323.795699,517.566757 345.623656,540.986376 C313.66129,571.43188 270.005376,590.167575 221.672043,590.167575 Z" id="&amp;" fill="#F6EDE9" fill-rule="nonzero"></path>
    </g>
</svg>