<?xml version="1.0" encoding="UTF-8"?>
<svg width="40px" height="40px" viewBox="0 0 40 40" version="1.1" xmlns="http://www.w3.org/2000/svg" xmlns:xlink="http://www.w3.org/1999/xlink">
    <!-- Generator: Sketch 41.2 (35397) - http://www.bohemiancoding.com/sketch -->
    <title>linkedin</title>
    <desc>Created with Sketch.</desc>
    <defs></defs>
    <g id="Page-1" stroke="none" stroke-width="1" fill="none" fill-rule="evenodd">
        <g id="Home-Copy-2" transform="translate(-1105.000000, -2293.000000)">
            <g id="linkedin" transform="translate(1105.000000, 2293.000000)">
                <path d="M21.27875,18.79125 L21.27875,18.75 C21.27125,18.765 21.26,18.77875 21.25,18.79125 L21.27875,18.79125" id="Fill-489" fill="#636462"></path>
                <path d="M30,28.3075 L25.7125,28.3075 L25.7125,21.40875 C25.7125,19.675 25.0925,18.49125 23.54,18.49125 C22.35625,18.49125 21.65,19.2925 21.34,20.06125 C21.22625,20.3375 21.19875,20.7175 21.19875,21.10625 L21.19875,28.3075 L16.9125,28.3075 C16.9125,28.3075 16.9675,16.62125 16.9125,15.4125 L21.19875,15.4125 L21.19875,17.23875 C21.77,16.3575 22.7875,15.11 25.0625,15.11 C27.8825,15.11 30,16.95125 30,20.9125 L30,28.3075 Z M12.39625,13.65 L12.3675,13.65 C10.93,13.65 10,12.65875 10,11.42125 C10,10.15625 10.95875,9.1925 12.42375,9.1925 C13.89125,9.1925 14.795,10.15625 14.82125,11.42125 C14.82125,12.65875 13.89125,13.65 12.39625,13.65 Z M10.2525,28.3075 L14.54125,28.3075 L14.54125,15.4125 L10.2525,15.4125 L10.2525,28.3075 Z M20,0 C8.95375,0 0,8.955 0,20 C0,31.0475 8.95375,40 20,40 C31.045,40 40,31.0475 40,20 C40,8.955 31.045,0 20,0 L20,0 Z" id="Fill-490" fill="#FFFFFF"></path>
            </g>
        </g>
    </g>
</svg>