<svg width="12" height="12" viewBox="0 0 12 12" fill="none" xmlns="http://www.w3.org/2000/svg">
<path d="M10.2 2H1.8C1.32261 2 0.864773 2.18964 0.527208 2.52721C0.189642 2.86477 0 3.32261 0 3.8V9.8C0 10.2774 0.189642 10.7352 0.527208 11.0728C0.864773 11.4104 1.32261 11.6 1.8 11.6H10.2C10.6774 11.6 11.1352 11.4104 11.4728 11.0728C11.8104 10.7352 12 10.2774 12 9.8V3.8C12 3.32261 11.8104 2.86477 11.4728 2.52721C11.1352 2.18964 10.6774 2 10.2 2V2ZM9.954 3.2L6.426 6.728C6.37022 6.78424 6.30386 6.82887 6.23075 6.85933C6.15763 6.8898 6.07921 6.90548 6 6.90548C5.92079 6.90548 5.84237 6.8898 5.76925 6.85933C5.69614 6.82887 5.62978 6.78424 5.574 6.728L2.046 3.2H9.954ZM10.8 9.8C10.8 9.95913 10.7368 10.1117 10.6243 10.2243C10.5117 10.3368 10.3591 10.4 10.2 10.4H1.8C1.64087 10.4 1.48826 10.3368 1.37574 10.2243C1.26321 10.1117 1.2 9.95913 1.2 9.8V4.046L4.728 7.574C5.0655 7.91108 5.523 8.10042 6 8.10042C6.477 8.10042 6.9345 7.91108 7.272 7.574L10.8 4.046V9.8Z" fill="#F6EDE9"/>
</svg>
