<?xml version="1.0" encoding="UTF-8"?>
<svg width="40px" height="40px" viewBox="0 0 40 40" version="1.1" xmlns="http://www.w3.org/2000/svg" xmlns:xlink="http://www.w3.org/1999/xlink">
    <!-- Generator: Sketch 41.2 (35397) - http://www.bohemiancoding.com/sketch -->
    <title>medium</title>
    <desc>Created with Sketch.</desc>
    <defs></defs>
    <g id="Page-1" stroke="none" stroke-width="1" fill="none" fill-rule="evenodd">
        <g id="Home-Copy-2" transform="translate(-1261.000000, -2293.000000)" fill="#FFFFFF">
            <path d="M1281,2293 C1269.94545,2293 1261,2301.94545 1261,2313 C1261,2324.05455 1269.94545,2333 1281,2333 C1292.05455,2333 1301,2324.05455 1301,2313 C1301,2301.94545 1292.05455,2293 1281,2293 Z M1276.92983,2321.55229 L1276.92983,2321.55229 L1276.92983,2321.55229 L1270.63878,2318.47229 C1270.57325,2318.40676 1270.44219,2318.2757 1270.44219,2318.14463 L1270.44219,2303.8587 L1276.8643,2307.06976 L1276.8643,2321.55229 L1276.92983,2321.55229 Z M1277.71621,2314.73698 L1277.71621,2308.24933 L1283.48301,2317.62038 L1277.71621,2314.73698 Z M1280.27195,2310.93613 L1284.72812,2303.79317 L1291.21576,2307.06976 L1284.53152,2317.8825 L1280.27195,2310.93613 Z M1291.41236,2321.55229 L1291.41236,2321.55229 L1291.41236,2321.55229 L1285.12131,2318.47229 L1291.41236,2308.24933 L1291.41236,2321.55229 Z" id="medium"></path>
        </g>
    </g>
</svg>