<?xml version="1.0" encoding="UTF-8"?>
<svg width="64px" height="12px" viewBox="0 0 64 12" version="1.1" xmlns="http://www.w3.org/2000/svg" xmlns:xlink="http://www.w3.org/1999/xlink">
    <!-- Generator: Sketch 41.2 (35397) - http://www.bohemiancoding.com/sketch -->
    <title>Group Copy 3</title>
    <desc>Created with Sketch.</desc>
    <defs></defs>
    <g id="Page-1" stroke="none" stroke-width="1" fill="none" fill-rule="evenodd">
        <g id="Home-Copy-2" transform="translate(-208.000000, -797.000000)" fill="#2E6F88">
            <g id="Group-11" transform="translate(183.000000, 593.000000)">
                <g id="Group-Copy-3" transform="translate(25.000000, 204.000000)">
                    <g id="Group-3">
                        <path d="M63.605,2.3258 C61.981,2.3258 61.117,3.0228 60.117,3.8288 C59.044,4.6938 57.827,5.6748 55.655,5.6748 C53.484,5.6748 52.267,4.6938 51.193,3.8288 C50.192,3.0228 49.329,2.3258 47.704,2.3258 C46.08,2.3258 45.216,3.0228 44.216,3.8288 C43.142,4.6938 41.926,5.6748 39.754,5.6748 C37.583,5.6748 36.365,4.6938 35.292,3.8288 C34.291,3.0228 33.428,2.3258 31.803,2.3258 C30.179,2.3258 29.314,3.0228 28.314,3.8288 C27.24,4.6938 26.024,5.6748 23.853,5.6748 C21.682,5.6748 20.464,4.6938 19.391,3.8288 C18.39,3.0228 17.526,2.3258 15.901,2.3258 C14.277,2.3258 13.413,3.0228 12.413,3.8288 C11.339,4.6938 10.123,5.6748 7.951,5.6748 C5.78,5.6748 4.562,4.6938 3.489,3.8288 C2.488,3.0228 1.625,2.3258 0,2.3258 L0,0.7758 C2.171,0.7758 3.389,1.7568 4.462,2.6218 C5.463,3.4288 6.326,4.1248 7.951,4.1248 C9.575,4.1248 10.439,3.4288 11.439,2.6218 C12.514,1.7568 13.729,0.7758 15.901,0.7758 C18.072,0.7758 19.29,1.7568 20.363,2.6218 C21.364,3.4288 22.228,4.1248 23.853,4.1248 C25.477,4.1248 26.341,3.4288 27.341,2.6218 C28.415,1.7568 29.631,0.7758 31.803,0.7758 C33.974,0.7758 35.191,1.7568 36.265,2.6218 C37.266,3.4288 38.129,4.1248 39.754,4.1248 C41.378,4.1248 42.242,3.4288 43.242,2.6218 C44.316,1.7568 45.532,0.7758 47.704,0.7758 C49.875,0.7758 51.093,1.7568 52.166,2.6218 C53.167,3.4288 54.03,4.1248 55.655,4.1248 C57.28,4.1248 58.144,3.4288 59.145,2.6218 C60.218,1.7568 61.435,0.7758 63.605,0.7758 C63.6047363,0.791786035 63.6151123,2.33988174 63.605,2.3258 Z" id="Fill-1"></path>
                    </g>
                    <g id="Group-3-Copy" transform="translate(0.000000, 6.000000)">
                        <path d="M63.605,2.3258 C61.981,2.3258 61.117,3.0228 60.117,3.8288 C59.044,4.6938 57.827,5.6748 55.655,5.6748 C53.484,5.6748 52.267,4.6938 51.193,3.8288 C50.192,3.0228 49.329,2.3258 47.704,2.3258 C46.08,2.3258 45.216,3.0228 44.216,3.8288 C43.142,4.6938 41.926,5.6748 39.754,5.6748 C37.583,5.6748 36.365,4.6938 35.292,3.8288 C34.291,3.0228 33.428,2.3258 31.803,2.3258 C30.179,2.3258 29.314,3.0228 28.314,3.8288 C27.24,4.6938 26.024,5.6748 23.853,5.6748 C21.682,5.6748 20.464,4.6938 19.391,3.8288 C18.39,3.0228 17.526,2.3258 15.901,2.3258 C14.277,2.3258 13.413,3.0228 12.413,3.8288 C11.339,4.6938 10.123,5.6748 7.951,5.6748 C5.78,5.6748 4.562,4.6938 3.489,3.8288 C2.488,3.0228 1.625,2.3258 0,2.3258 L0,0.7758 C2.171,0.7758 3.389,1.7568 4.462,2.6218 C5.463,3.4288 6.326,4.1248 7.951,4.1248 C9.575,4.1248 10.439,3.4288 11.439,2.6218 C12.514,1.7568 13.729,0.7758 15.901,0.7758 C18.072,0.7758 19.29,1.7568 20.363,2.6218 C21.364,3.4288 22.228,4.1248 23.853,4.1248 C25.477,4.1248 26.341,3.4288 27.341,2.6218 C28.415,1.7568 29.631,0.7758 31.803,0.7758 C33.974,0.7758 35.191,1.7568 36.265,2.6218 C37.266,3.4288 38.129,4.1248 39.754,4.1248 C41.378,4.1248 42.242,3.4288 43.242,2.6218 C44.316,1.7568 45.532,0.7758 47.704,0.7758 C49.875,0.7758 51.093,1.7568 52.166,2.6218 C53.167,3.4288 54.03,4.1248 55.655,4.1248 C57.28,4.1248 58.144,3.4288 59.145,2.6218 C60.218,1.7568 61.435,0.7758 63.605,0.7758 C63.6047363,0.791786035 63.6151123,2.33988174 63.605,2.3258 Z" id="Fill-1"></path>
                    </g>
                </g>
            </g>
        </g>
    </g>
</svg>