<?xml version="1.0" encoding="UTF-8"?>
<svg width="96px" height="12px" viewBox="0 0 96 12" version="1.1" xmlns="http://www.w3.org/2000/svg" xmlns:xlink="http://www.w3.org/1999/xlink">
    <!-- Generator: Sketch 41.2 (35397) - http://www.bohemiancoding.com/sketch -->
    <title>Page 1</title>
    <desc>Created with Sketch.</desc>
    <defs>
        <polygon id="path-1" points="95.409 3.2254 95.409 0.776 0 0.776 0 3.2254 0 5.6748 95.409 5.6748 95.409 3.2254"></polygon>
    </defs>
    <g id="Page-1" stroke="none" stroke-width="1" fill="none" fill-rule="evenodd">
        <g id="Home-Copy-2" transform="translate(-692.000000, -243.000000)">
            <g id="Page-1" transform="translate(692.000000, 242.000000)">
                <g id="Group-3" transform="translate(0.000000, 0.223900)">
                    <mask id="mask-2" fill="white">
                        <use xlink:href="#path-1"></use>
                    </mask>
                    <g id="Clip-2"></g>
                    <path d="M87.458,5.6748 C85.286,5.6748 84.069,4.6938 82.996,3.8288 C81.996,3.0228 81.132,2.3258 79.508,2.3258 C77.883,2.3258 77.02,3.0228 76.019,3.8288 C74.945,4.6938 73.728,5.6748 71.557,5.6748 C69.386,5.6748 68.168,4.6938 67.095,3.8288 C66.094,3.0228 65.23,2.3258 63.605,2.3258 C61.981,2.3258 61.117,3.0228 60.117,3.8288 C59.044,4.6938 57.827,5.6748 55.655,5.6748 C53.484,5.6748 52.267,4.6938 51.193,3.8288 C50.192,3.0228 49.329,2.3258 47.704,2.3258 C46.08,2.3258 45.216,3.0228 44.216,3.8288 C43.142,4.6938 41.926,5.6748 39.754,5.6748 C37.583,5.6748 36.365,4.6938 35.292,3.8288 C34.291,3.0228 33.428,2.3258 31.803,2.3258 C30.179,2.3258 29.314,3.0228 28.314,3.8288 C27.24,4.6938 26.024,5.6748 23.853,5.6748 C21.682,5.6748 20.464,4.6938 19.391,3.8288 C18.39,3.0228 17.526,2.3258 15.901,2.3258 C14.277,2.3258 13.413,3.0228 12.413,3.8288 C11.339,4.6938 10.123,5.6748 7.951,5.6748 C5.78,5.6748 4.562,4.6938 3.489,3.8288 C2.488,3.0228 1.625,2.3258 0,2.3258 L0,0.7758 C2.171,0.7758 3.389,1.7568 4.462,2.6218 C5.463,3.4288 6.326,4.1248 7.951,4.1248 C9.575,4.1248 10.439,3.4288 11.439,2.6218 C12.514,1.7568 13.729,0.7758 15.901,0.7758 C18.072,0.7758 19.29,1.7568 20.363,2.6218 C21.364,3.4288 22.228,4.1248 23.853,4.1248 C25.477,4.1248 26.341,3.4288 27.341,2.6218 C28.415,1.7568 29.631,0.7758 31.803,0.7758 C33.974,0.7758 35.191,1.7568 36.265,2.6218 C37.266,3.4288 38.129,4.1248 39.754,4.1248 C41.378,4.1248 42.242,3.4288 43.242,2.6218 C44.316,1.7568 45.532,0.7758 47.704,0.7758 C49.875,0.7758 51.093,1.7568 52.166,2.6218 C53.167,3.4288 54.03,4.1248 55.655,4.1248 C57.28,4.1248 58.144,3.4288 59.145,2.6218 C60.218,1.7568 61.435,0.7758 63.605,0.7758 C65.776,0.7758 66.994,1.7568 68.067,2.6218 C69.068,3.4288 69.932,4.1248 71.557,4.1248 C73.182,4.1248 74.045,3.4288 75.046,2.6218 C76.119,1.7568 77.337,0.7758 79.508,0.7758 C81.679,0.7758 82.896,1.7568 83.969,2.6218 C84.97,3.4288 85.833,4.1248 87.458,4.1248 C89.083,4.1248 89.946,3.4288 90.947,2.6218 C92.02,1.7568 93.238,0.7758 95.409,0.7758 L95.409,2.3258 C93.784,2.3258 92.921,3.0228 91.92,3.8288 C90.847,4.6938 89.629,5.6748 87.458,5.6748" id="Fill-1" fill="#F47253" mask="url(#mask-2)"></path>
                </g>
                <path d="M87.458,12.2239 C85.286,12.2239 84.069,11.2429 82.996,10.3779 C81.996,9.5709 81.132,8.8749 79.508,8.8749 C77.884,8.8749 77.02,9.5709 76.019,10.3779 C74.945,11.2429 73.729,12.2239 71.557,12.2239 C69.385,12.2239 68.168,11.2429 67.095,10.3779 C66.094,9.5709 65.229,8.8749 63.605,8.8749 C61.981,8.8749 61.117,9.5709 60.117,10.3779 C59.044,11.2429 57.827,12.2239 55.655,12.2239 C53.484,12.2239 52.267,11.2429 51.193,10.3779 C50.192,9.5709 49.329,8.8749 47.704,8.8749 C46.08,8.8749 45.216,9.5709 44.216,10.3779 C43.142,11.2429 41.926,12.2239 39.754,12.2239 C37.582,12.2239 36.365,11.2429 35.292,10.3779 C34.291,9.5709 33.427,8.8749 31.803,8.8749 C30.179,8.8749 29.314,9.5709 28.314,10.3779 C27.24,11.2429 26.024,12.2239 23.853,12.2239 C21.681,12.2239 20.464,11.2429 19.391,10.3779 C18.39,9.5709 17.525,8.8749 15.901,8.8749 C14.277,8.8749 13.413,9.5709 12.413,10.3779 C11.339,11.2429 10.123,12.2239 7.951,12.2239 C5.78,12.2239 4.562,11.2429 3.489,10.3779 C2.488,9.5709 1.624,8.8749 0,8.8749 L0,7.3249 C2.172,7.3249 3.389,8.3059 4.462,9.1709 C5.463,9.9779 6.326,10.6739 7.951,10.6739 C9.575,10.6739 10.439,9.9779 11.439,9.1709 C12.514,8.3059 13.729,7.3249 15.901,7.3249 C18.073,7.3249 19.29,8.3059 20.363,9.1709 C21.364,9.9779 22.229,10.6739 23.853,10.6739 C25.477,10.6739 26.341,9.9779 27.341,9.1709 C28.415,8.3059 29.631,7.3249 31.803,7.3249 C33.975,7.3249 35.191,8.3059 36.265,9.1709 C37.266,9.9779 38.13,10.6739 39.754,10.6739 C41.378,10.6739 42.242,9.9779 43.242,9.1709 C44.316,8.3059 45.532,7.3249 47.704,7.3249 C49.875,7.3249 51.093,8.3059 52.166,9.1709 C53.167,9.9779 54.031,10.6739 55.655,10.6739 C57.28,10.6739 58.144,9.9769 59.145,9.1709 C60.218,8.3059 61.435,7.3249 63.605,7.3249 C65.777,7.3249 66.994,8.3059 68.067,9.1709 C69.068,9.9779 69.933,10.6739 71.557,10.6739 C73.181,10.6739 74.045,9.9779 75.046,9.1709 C76.119,8.3059 77.336,7.3249 79.508,7.3249 C81.679,7.3249 82.896,8.3059 83.969,9.1709 C84.97,9.9769 85.833,10.6739 87.458,10.6739 C89.082,10.6739 89.946,9.9779 90.947,9.1709 C92.02,8.3059 93.237,7.3249 95.409,7.3249 L95.409,8.8749 C93.785,8.8749 92.921,9.5709 91.92,10.3779 C90.847,11.2429 89.63,12.2239 87.458,12.2239" id="Fill-4" fill="#F47253"></path>
            </g>
        </g>
    </g>
</svg>